<?xml version="1.0" encoding="UTF-8"?>
<svg width="30px" height="31px" viewBox="0 0 30 31" version="1.1" xmlns="http://www.w3.org/2000/svg" xmlns:xlink="http://www.w3.org/1999/xlink">
    <!-- Generator: Sketch 47.1 (45422) - http://www.bohemiancoding.com/sketch -->
    <title>横竖屏-橙</title>
    <desc>Created with Sketch.</desc>
    <defs></defs>
    <g id="横竖屏优化" stroke="none" stroke-width="1" fill="none" fill-rule="evenodd">
        <g id="Artboard-Copy-100" transform="translate(-328.000000, -65.000000)" fill="#FF8140">
            <g id="横竖屏-橙" transform="translate(328.000000, 65.000000)">
                <path d="M5.23,21.82 L5.92,21.82 L5.92,22.74 L7.44,22.74 L7.44,21.82 L8.13,21.82 L8.13,22.74 L9.27,22.74 L9.27,23.36 L8.13,23.36 L8.13,24.31 L9.45,24.31 L9.45,24.95 L7.03,24.95 L7.03,25.71 L9.05,25.71 L9.05,29.22 L4.35,29.22 L4.35,25.71 L6.33,25.71 L6.33,24.95 L3.9,24.95 L3.9,24.31 L5.23,24.31 L5.23,23.36 L4.11,23.36 L4.11,22.74 L5.23,22.74 L5.23,21.82 Z M7.44,23.36 L5.92,23.36 L5.92,24.31 L7.44,24.31 L7.44,23.36 Z M8.36,28.61 L8.36,27.74 L7.03,27.74 L7.03,28.61 L8.36,28.61 Z M6.33,28.61 L6.33,27.74 L5.03,27.74 L5.03,28.61 L6.33,28.61 Z M5.03,27.16 L6.33,27.16 L6.33,26.3 L5.03,26.3 L5.03,27.16 Z M7.03,26.3 L7.03,27.16 L8.36,27.16 L8.36,26.3 L7.03,26.3 Z M7.59,29.43 L7.23,29.95 C7.93,30.21 8.62,30.57 9.3,31.03 L9.68,30.46 C9.04,30.05 8.35,29.71 7.59,29.43 Z M5.69,29.44 L6.12,29.93 C5.52,30.37 4.77,30.73 3.88,31.02 L3.58,30.39 C4.43,30.15 5.13,29.83 5.69,29.44 Z M2.63,25.79 L2.63,30.97 L1.94,30.97 L1.94,25.89 C1.62,26.85 1.19,27.73 0.67,28.52 L0.36,27.73 C1.08,26.78 1.6,25.7 1.92,24.48 L0.57,24.48 L0.57,23.79 L1.94,23.79 L1.94,21.83 L2.63,21.83 L2.63,23.79 L3.62,23.79 L3.62,24.48 L2.63,24.48 L2.63,25.02 C3.09,25.51 3.55,26.06 4.01,26.66 L3.61,27.27 C3.23,26.65 2.9,26.16 2.63,25.79 Z M15.17,26.43 C15.27,26.7 15.36,27.01 15.45,27.36 L18.8,27.36 L18.8,28.04 L11.19,28.04 L11.19,27.36 L14.72,27.36 C14.62,27.06 14.52,26.79 14.4,26.55 L15.17,26.43 Z M12.81,21.89 L13.5,21.89 L13.5,26.64 L12.81,26.64 L12.81,21.89 Z M10.99,22.56 L10.99,26.17 L11.69,26.17 L11.69,22.56 L10.99,22.56 Z M14.32,22.3 L18.57,22.3 L18.57,22.92 C18.28,23.7 17.8,24.36 17.14,24.91 C17.76,25.34 18.51,25.67 19.4,25.89 L19.06,26.51 C18.06,26.23 17.24,25.83 16.58,25.33 C15.94,25.75 15.17,26.09 14.28,26.35 L13.94,25.73 C14.76,25.51 15.46,25.22 16.06,24.87 C15.52,24.33 15.13,23.7 14.89,22.96 L14.32,22.96 L14.32,22.3 Z M15.52,22.96 C15.77,23.55 16.13,24.06 16.61,24.49 C17.17,24.05 17.6,23.54 17.88,22.96 L15.52,22.96 Z M10.79,30.03 L10.79,30.7 L19.24,30.7 L19.24,30.03 L17.03,30.03 C17.25,29.59 17.44,29.1 17.6,28.55 L16.87,28.35 C16.69,29 16.49,29.56 16.26,30.03 L13.67,30.03 C13.51,29.42 13.34,28.87 13.15,28.39 L12.43,28.62 C12.62,29.07 12.79,29.54 12.94,30.03 L10.79,30.03 Z M26.92,26.68 L25.07,26.68 L25.07,27.21 C25.06,27.5 25.04,27.77 25.01,28.02 L26.92,28.02 L26.92,26.68 Z M26.92,28.68 L24.9,28.68 C24.8,29.06 24.68,29.4 24.52,29.69 C24.18,30.27 23.63,30.72 22.86,31.04 L22.46,30.41 C23.17,30.11 23.66,29.72 23.94,29.22 C24.02,29.05 24.09,28.87 24.15,28.68 L22.38,28.68 L22.38,28.02 L24.3,28.02 C24.33,27.76 24.35,27.49 24.36,27.21 L24.36,26.68 L22.74,26.68 L22.74,26.02 L24.36,26.02 C24.17,25.7 23.98,25.4 23.79,25.14 L24.4,24.85 C24.64,25.21 24.88,25.6 25.1,26.02 L26.66,26.02 C26.95,25.64 27.21,25.23 27.43,24.79 L28.12,25.03 C27.91,25.39 27.68,25.72 27.43,26.02 L29.06,26.02 L29.06,26.68 L27.61,26.68 L27.61,28.02 L29.45,28.02 L29.45,28.68 L27.61,28.68 L27.61,30.92 L26.92,30.92 L26.92,28.68 Z M28.23,22.86 L22.18,22.86 L22.18,23.89 L28.23,23.89 L28.23,22.86 Z M22.18,24.57 L22.18,25.51 C22.17,27.63 21.81,29.46 21.09,30.98 L20.47,30.44 C21.13,29.16 21.46,27.52 21.47,25.51 L21.47,22.18 L28.93,22.18 L28.93,24.57 L22.18,24.57 Z" id="横竖屏"></path>
                <path d="M6.81690141,16.4571429 L6.30408483,16.4571429 C5.87998554,16.4571429 5.53844969,16.1151429 5.53844972,15.6877714 L5.53844972,2.31222856 C5.53844972,1.88999999 5.88562653,1.54285713 6.30408483,1.54285713 L12.4655759,1.54285713 C12.8896752,1.54285713 13.2306982,1.88485714 13.2306982,2.31222856 L13.2306982,5.91222858 C13.2306982,6.33857144 13.575311,6.68365716 13.9999231,6.68365713 C14.425048,6.68365713 14.7691479,6.33857142 14.7691479,5.91222858 L14.7691479,2.31222856 C14.7691479,1.0326857 13.7388995,0 12.4655759,0 L6.30408483,0 C5.03640229,0 4,1.03731429 4,2.31222856 L4,15.6877714 C4,16.9673143 5.0307613,18 6.30408483,18 L6.81690141,18 C7.24151353,18 7.58612627,17.6549143 7.58612627,17.2285714 C7.58612627,16.8022286 7.24151353,16.4571428 6.81690141,16.4571429 Z M17.0769763,1.54285713 C18.8933726,1.54285713 20.5810519,2.30502856 21.777453,3.59999999 L20.6692564,3.59999999 C20.2400289,3.59999999 19.8974675,3.9450857 19.8974675,4.37142857 C19.8974675,4.80034285 20.2431058,5.14285715 20.6692564,5.14285715 L23.2307751,5.14285715 C23.4400043,5.14285715 23.6276952,5.05902858 23.7656428,4.9242857 C23.7687197,4.92171426 23.7723094,4.91965714 23.7753863,4.9170857 C23.7866683,4.90474284 23.7964118,4.89034283 23.807181,4.87748571 C23.9256416,4.74222856 24,4.56634286 24,4.37142857 L24,1.80257142 C24,1.37211429 23.6559001,1.02857143 23.2307751,1.02857143 C22.8030861,1.02857143 22.4615503,1.3752 22.4615503,1.80257142 L22.4615503,2.11165715 C21.0184845,0.776571434 19.1133709,2.84217094e-14 17.0769763,2.84217094e-14 C16.6518514,2.84217094e-14 16.3077515,0.345085713 16.3077515,0.771428553 C16.3077515,1.19777139 16.6518514,1.54285713 17.0769763,1.54285713 L17.0769763,1.54285713 Z" id="Shape" fill-rule="nonzero"></path>
                <path d="M22.6818182,7 L10.3181818,7 C9.04009092,7 8.00000003,8.05338096 8,9.35295239 L8,15.6465238 C8,16.9419048 9.0400909,18 10.3181818,18 L22.6818182,18 C23.9599091,18 25,16.9460952 25,15.6465238 L25,9.35295239 C25,8.05809526 23.9599091,7 22.6818182,7 Z M23.4545454,15.6465238 C23.4545454,16.0770953 23.1078485,16.4285714 22.6818182,16.4285714 L10.3181818,16.4285714 C9.89369699,16.4285714 9.54545456,16.0739524 9.54545456,15.6465238 L9.54545456,9.35295239 C9.54545456,8.92290478 9.89215151,8.57142859 10.3181818,8.57142856 L22.6818182,8.57142856 C23.106303,8.57142856 23.4545455,8.92552381 23.4545454,9.35295239 L23.4545454,15.6465238 Z" id="Shape" fill-rule="nonzero"></path>
            </g>
        </g>
    </g>
</svg>