<?xml version="1.0" encoding="UTF-8"?>
<svg width="15px" height="18px" viewBox="0 0 15 18" version="1.1" xmlns="http://www.w3.org/2000/svg" xmlns:xlink="http://www.w3.org/1999/xlink">
    <!-- Generator: Sketch 49.3 (51167) - http://www.bohemiancoding.com/sketch -->
    <title>Group 3</title>
    <desc>Created with Sketch.</desc>
    <defs></defs>
    <g id="标题栏-提示字段修改" stroke="none" stroke-width="1" fill="none" fill-rule="evenodd">
        <g id="快速制作-分享-copy-2" transform="translate(-633.000000, -460.000000)">
            <g id="Group-3" transform="translate(633.000000, 460.000000)">
                <path d="M14.9916973,7.53640541 C14.9916973,3.39632432 11.6359541,0.0405405405 7.49583243,0.0405405405 C3.35575135,0.0405405405 8.10810798e-06,3.39632432 8.10810798e-06,7.53640541 C8.10810798e-06,11.0922162 2.47679189,14.0675676 5.79888649,14.8366622 L5.79446757,14.8366622 C5.79446757,14.8366622 6.24665676,14.9509459 6.42256216,15.2881622 C6.50830541,15.4513784 6.96556216,16.4173784 7.24942703,17.0054595 C7.28688649,17.0841892 7.34976486,17.2169189 7.49583243,17.2169189 C7.64254865,17.2169189 7.70477838,17.0841892 7.74288649,17.0054595 C8.02614324,16.4173784 8.4834,15.4513784 8.56914324,15.2881622 C8.74504865,14.9509459 9.19723784,14.8366622 9.19723784,14.8366622 L9.19277838,14.8366622 C12.514873,14.0675676 14.9916973,11.0922162 14.9916973,7.53640541" id="Fill-1" fill="#4285F4"></path>
                <g id="Group-8" transform="translate(4.495853, 2.747183)" fill="#FFFFFF">
                    <path d="M2.9145624,6.85714286 C2.89451957,6.85714286 2.87447673,6.85562747 2.85443389,6.85411208 C2.5237271,6.82531968 2.28321307,6.55709574 2.31494756,6.25704862 C2.39678914,5.50086927 3.00809564,4.89016731 3.68120088,4.27946534 C4.75850331,3.30203913 4.77687591,2.99138428 4.79524851,2.66254476 C4.81696159,2.27915122 4.66162961,1.9078808 4.35430612,1.61541063 C4.00522673,1.28202494 3.51083677,1.09108587 2.99807422,1.09108587 C2.99640398,1.09108587 2.99473375,1.09108587 2.99473375,1.09108587 C2.00762407,1.09260126 1.20257016,1.82301899 1.20257016,2.72012956 C1.20257016,3.02169207 0.93366211,3.26566978 0.60128508,3.26566978 C0.26890805,3.26566978 0,3.02169207 0,2.72012956 C0,1.994258 0.310663958,1.31233273 0.875203839,0.798615698 C1.43974372,0.284898662 2.19135007,0.00152082861 2.99139327,5.4391215e-06 C3.83486262,-0.00150995036 4.64993795,0.313691062 5.22616949,0.863777445 C5.76231535,1.37597909 6.03623411,2.03517352 5.99614844,2.72012956 C5.95439253,3.4217549 5.71721897,3.97487206 4.53135117,5.05079859 C3.93006609,5.59633881 3.55092245,6.00549397 3.51250701,6.36464127 C3.48244276,6.64650372 3.22021565,6.85714286 2.9145624,6.85714286 Z" id="Path"></path>
                    <path d="M2.14285714,8.79751295 C2.14285713,9.1037406 2.30622763,9.38670662 2.57142856,9.53982045 C2.83662949,9.69293428 3.16337051,9.69293428 3.42857144,9.53982045 C3.69377237,9.38670662 3.85714287,9.1037406 3.85714286,8.79751295 C3.85714286,8.32412603 3.47338693,7.94037011 3,7.94037011 C2.52661307,7.94037011 2.14285714,8.32412603 2.14285714,8.79751295 Z" id="Path"></path>
                </g>
            </g>
        </g>
    </g>
</svg>