<?xml version="1.0" encoding="UTF-8"?>
<svg width="15px" height="18px" viewBox="0 0 15 18" version="1.1" xmlns="http://www.w3.org/2000/svg" xmlns:xlink="http://www.w3.org/1999/xlink">
    <!-- Generator: Sketch 47.1 (45422) - http://www.bohemiancoding.com/sketch -->
    <title>Group 3</title>
    <desc>Created with Sketch.</desc>
    <defs></defs>
    <g id="播放器修改" stroke="none" stroke-width="1" fill="none" fill-rule="evenodd">
        <g id="剪直播-copy" transform="translate(-934.000000, -558.000000)">
            <g id="Group-3" transform="translate(934.000000, 558.000000)">
                <path d="M14.9916973,7.53640541 C14.9916973,3.39632432 11.6359541,0.0405405405 7.49583243,0.0405405405 C3.35575135,0.0405405405 8.10810824e-06,3.39632432 8.10810824e-06,7.53640541 C8.10810824e-06,11.0922162 2.47679189,14.0675676 5.79888649,14.8366622 L5.79446757,14.8366622 C5.79446757,14.8366622 6.24665676,14.9509459 6.42256216,15.2881622 C6.50830541,15.4513784 6.96556216,16.4173784 7.24942703,17.0054595 C7.28688649,17.0841892 7.34976486,17.2169189 7.49583243,17.2169189 C7.64254865,17.2169189 7.70477838,17.0841892 7.74288649,17.0054595 C8.02614324,16.4173784 8.4834,15.4513784 8.56914324,15.2881622 C8.74504865,14.9509459 9.19723784,14.8366622 9.19723784,14.8366622 L9.19277838,14.8366622 C12.514873,14.0675676 14.9916973,11.0922162 14.9916973,7.53640541" id="Fill-1" fill="#FF8140"></path>
                <polygon id="Path" fill="#FFFFFF" points="6.47197297 11.4353514 8.52239189 11.4353514 8.52239189 9.79435135 6.47197297 9.79435135"></polygon>
                <polygon id="Path" fill="#FFFFFF" points="6.47197297 8.97417568 8.52239189 8.97417568 8.52239189 4.05251351 6.47197297 4.05251351"></polygon>
            </g>
        </g>
    </g>
</svg>