<?xml version="1.0" encoding="UTF-8"?>
<svg width="8px" height="8px" viewBox="0 0 8 8" version="1.1" xmlns="http://www.w3.org/2000/svg" xmlns:xlink="http://www.w3.org/1999/xlink">
    <!-- Generator: Sketch 49.3 (51167) - http://www.bohemiancoding.com/sketch -->
    <title>关闭</title>
    <desc>Created with Sketch.</desc>
    <defs></defs>
    <g id="迭代需求设计" stroke="none" stroke-width="1" fill="none" fill-rule="evenodd">
        <g id="微博账号保存_2018071701-copy" transform="translate(-820.000000, -446.000000)" fill="#999999">
            <g id="Group-67-Copy-2" transform="translate(470.000000, 434.000000)">
                <path d="M357.897974,19.8990375 L357.897974,19.8990375 C357.763376,20.0336542 357.544788,20.0336542 357.410189,19.8990375 L354,16.4883893 L350.588734,19.8990375 C350.454136,20.0336542 350.235547,20.0336542 350.100949,19.8990375 L350.100949,19.8990375 C349.96635,19.7644208 349.96635,19.5458033 350.100949,19.4111866 L353.512215,16.0005385 L350.102026,12.5888134 C349.967427,12.4541967 349.967427,12.2355792 350.102026,12.1009625 L350.102026,12.1009625 C350.236624,11.9663458 350.455212,11.9663458 350.589811,12.1009625 L354,15.5126876 L357.411266,12.1020394 C357.545864,11.9674228 357.764453,11.9674228 357.899051,12.1020394 L357.899051,12.1020394 C358.03365,12.2366561 358.03365,12.4552736 357.899051,12.5898903 L354.487785,16.0005385 L357.897974,19.4122636 C358.032573,19.5468803 358.032573,19.7644208 357.897974,19.8990375 L357.897974,19.8990375 Z" id="关闭" transform="translate(354.000000, 16.000000) scale(1, -1) translate(-354.000000, -16.000000) "></path>
            </g>
        </g>
    </g>
</svg>
