<?xml version="1.0" encoding="utf-8"?>
<!-- Generator: Adobe Illustrator 19.0.0, SVG Export Plug-In . SVG Version: 6.00 Build 0)  -->
<svg version="1.1" id="图层_1" xmlns="http://www.w3.org/2000/svg" xmlns:xlink="http://www.w3.org/1999/xlink" x="0px" y="0px"
	 viewBox="-7 9 36 22" style="enable-background:new -7 9 36 22;" xml:space="preserve">
<style type="text/css">
	.st0{fill:#FF8140;}
	.st1{fill:#FFFFFF;}
</style>
<title>icon</title>
<g id="动态模版">
	<g id="Page-1">
		<path id="Fill-1" class="st0" d="M-1.6,30.4c-2.1-0.2-4.3-2-4.7-4c-0.9-4.3-0.9-8.6,0-12.9c0.4-1.9,2.7-3.7,4.7-4
			c8.4-0.8,16.8-0.8,25.2,0c2.1,0.2,4.3,2,4.7,4c0.9,4.3,0.9,8.6,0,12.9c-0.4,1.9-2.7,3.7-4.7,4C15.2,31.2,6.8,31.2-1.6,30.4z"/>
		<path id="Polygon" class="st1" d="M17.4,21.1L8,26.8c-0.6,0.4-1.4,0.2-1.8-0.4C6.1,26.1,6,25.9,6,25.7V14.3C6,13.6,6.6,13,7.3,13
			c0.2,0,0.5,0.1,0.7,0.2l9.3,5.7c0.6,0.4,0.8,1.2,0.4,1.8C17.7,20.9,17.5,21,17.4,21.1z"/>
	</g>
</g>
</svg>
