<?xml version="1.0" encoding="utf-8"?>
<!-- Generator: Adobe Illustrator 19.0.0, SVG Export Plug-In . SVG Version: 6.00 Build 0)  -->
<svg version="1.1" id="图层_1" xmlns="http://www.w3.org/2000/svg" xmlns:xlink="http://www.w3.org/1999/xlink" x="0px" y="0px"
	 viewBox="-7 9 36 22" style="enable-background:new -7 9 36 22;" xml:space="preserve">
<style type="text/css">
	.st0{fill:#FF8140;}
	.st1{fill:#FFFFFF;}
</style>
<title>icon</title>
<g id="动态模版">
	<g id="云剪暂停_默认-copy-2">
		<path id="Fill-1" class="st0" d="M23.6,30.4c-8.4,0.8-16.8,0.8-25.2,0c-2.1-0.2-4.3-2-4.7-4c-0.9-4.3-0.9-8.6,0-12.9
			c0.4-1.9,2.7-3.7,4.7-4c8.4-0.8,16.8-0.8,25.2,0c2.1,0.2,4.3,2,4.7,4c0.9,4.3,0.9,8.6,0,12.9C27.9,28.4,25.6,30.2,23.6,30.4"/>
		<g id="Group" transform="translate(13.000000, 5.000000)">
			<g id="Rectangle">
				<g>
					<path id="path-1_10_" d="M-5.5,9L-5.5,9C-4.7,9-4,9.7-4,10.5v9c0,0.8-0.7,1.5-1.5,1.5l0,0C-6.3,21-7,20.3-7,19.5v-9
						C-7,9.7-6.3,9-5.5,9z"/>
				</g>
				<g>
					<path id="path-1_1_" class="st1" d="M-5.5,9L-5.5,9C-4.7,9-4,9.7-4,10.5v9c0,0.8-0.7,1.5-1.5,1.5l0,0C-6.3,21-7,20.3-7,19.5v-9
						C-7,9.7-6.3,9-5.5,9z"/>
				</g>
			</g>
			<g id="Rectangle-Copy">
				<g>
					<path id="path-3_10_" d="M1.5,9L1.5,9C2.3,9,3,9.7,3,10.5v9C3,20.3,2.3,21,1.5,21l0,0C0.7,21,0,20.3,0,19.5v-9
						C0,9.7,0.7,9,1.5,9z"/>
				</g>
				<g>
					<path id="path-3_1_" class="st1" d="M1.5,9L1.5,9C2.3,9,3,9.7,3,10.5v9C3,20.3,2.3,21,1.5,21l0,0C0.7,21,0,20.3,0,19.5v-9
						C0,9.7,0.7,9,1.5,9z"/>
				</g>
			</g>
		</g>
	</g>
</g>
</svg>
