<?xml version="1.0" encoding="UTF-8"?>
<svg width="16px" height="16px" viewBox="0 0 16 16" version="1.1" xmlns="http://www.w3.org/2000/svg" xmlns:xlink="http://www.w3.org/1999/xlink">
    <!-- Generator: Sketch 49.3 (51167) - http://www.bohemiancoding.com/sketch -->
    <title>标尺</title>
    <desc>Created with Sketch.</desc>
    <defs></defs>
    <g id="我的云剪设计-v1.2" stroke="none" stroke-width="1" fill="none" fill-rule="evenodd">
        <g id="快速剪辑_添加剪辑" transform="translate(-16.000000, -596.000000)">
            <g id="轨道" transform="translate(0.000000, 583.000000)">
                <g id="操作">
                    <g id="标尺" transform="translate(12.000000, 9.000000)">
                        <rect id="Rectangle-13-Copy-8" x="0" y="0" width="24" height="24"></rect>
                        <g id="Group-64" opacity="0.800000012" transform="translate(1.000000, 1.000000)">
                            <rect id="Rectangle-13-Copy-8" x="3" y="3" width="16" height="16"></rect>
                            <g id="Group-63" transform="translate(11.000000, 11.000000) rotate(-330.000000) translate(-11.000000, -11.000000) translate(3.000000, 3.000000)">
                                <path d="M8,15 C11.8659932,15 15,11.8659932 15,8 C15,4.13400675 11.8659932,1 8,1 C4.13400675,1 1,4.13400675 1,8 C1,11.8659932 4.13400675,15 8,15 Z M8,16 C3.581722,16 0,12.418278 0,8 C0,3.581722 3.581722,0 8,0 C12.418278,0 16,3.581722 16,8 C16,12.418278 12.418278,16 8,16 Z" id="Oval-11" fill="#000000" fill-rule="nonzero"></path>
                                <g id="Group-62" transform="translate(5.000000, 4.000000)">
                                    <path d="M0.5,10.5 L5.5,10.5 L5.5,0.5 L0.5,0.5 L0.5,10.5 Z" id="Rectangle-13-Copy-8" stroke="#000000"></path>
                                    <rect id="Rectangle-31" fill="#000000" x="1" y="2" width="2" height="1"></rect>
                                    <rect id="Rectangle-31-Copy" fill="#000000" x="1" y="4" width="3" height="1"></rect>
                                    <rect id="Rectangle-31-Copy-3" fill="#000000" x="1" y="8" width="3" height="1"></rect>
                                    <rect id="Rectangle-31-Copy-2" fill="#000000" x="1" y="6" width="1" height="1"></rect>
                                </g>
                            </g>
                        </g>
                    </g>
                </g>
            </g>
        </g>
    </g>
</svg>