<svg xmlns="http://www.w3.org/2000/svg" viewBox="0 0 720 1280" width="720" height="1280" preserveAspectRatio="xMidYMid meet" style="width: 100%; height: 100%; transform: translate3d(0px, 0px, 0px);">
    <defs>
        <text font-family="Lantinghei SC" font-style="Demibold" font-weight="600" style="font-size: 100px; font-family: &quot;Lantinghei SC&quot;;">新</text>
        <clipPath id="animationMask_TD9YUSXUFJ">
            <rect width="720" height="1280" x="0" y="0"></rect>
        </clipPath>
        <clipPath id="PDvgqAgAZg">
            <path fill="#ffffff" clip-rule="nonzero" d=" M75.7760009765625,1131.3719482421875 C75.7760009765625,1131.3719482421875 165.4550018310547,1131.3719482421875 165.4550018310547,1131.3719482421875 C165.4550018310547,1131.3719482421875 165.4550018310547,1145.0240478515625 165.4550018310547,1145.0240478515625 C165.4550018310547,1145.0240478515625 75.7760009765625,1145.0240478515625 75.7760009765625,1145.0240478515625 C75.7760009765625,1145.0240478515625 75.7760009765625,1131.3719482421875 75.7760009765625,1131.3719482421875" fill-opacity="1"></path>
        </clipPath>
        <mask id="ly_Bw8UnoK21K" mask-type="alpha">
            <g transform="matrix(1,0,0,1,360,640)" opacity="1" style="display: block;">
                <g opacity="1" transform="matrix(1,0,0,1,1.7419999837875366,-6.539000034332275)">
                    <path fill="rgb(255,255,255)" fill-opacity="1" d=" M305.74200439453125,-553.4609985351562 C305.74200439453125,-553.4609985351562 305.74200439453125,553.4609985351562 305.74200439453125,553.4609985351562 C305.74200439453125,553.4609985351562 -305.74200439453125,553.4609985351562 -305.74200439453125,553.4609985351562 C-305.74200439453125,553.4609985351562 -305.74200439453125,-553.4609985351562 -305.74200439453125,-553.4609985351562 C-305.74200439453125,-553.4609985351562 305.74200439453125,-553.4609985351562 305.74200439453125,-553.4609985351562z"></path>
                    <path stroke-linecap="butt" stroke-linejoin="miter" fill-opacity="0" stroke-miterlimit="4" stroke="rgb(255,255,255)" stroke-opacity="1" stroke-width="5" d=" M305.74200439453125,-553.4609985351562 C305.74200439453125,-553.4609985351562 305.74200439453125,553.4609985351562 305.74200439453125,553.4609985351562 C305.74200439453125,553.4609985351562 -305.74200439453125,553.4609985351562 -305.74200439453125,553.4609985351562 C-305.74200439453125,553.4609985351562 -305.74200439453125,-553.4609985351562 -305.74200439453125,-553.4609985351562 C-305.74200439453125,-553.4609985351562 305.74200439453125,-553.4609985351562 305.74200439453125,-553.4609985351562z"></path>
                </g>
            </g>
        </mask>
        <clipPath id="cp_3c2dm1Cr">
            <path d="M0,0 L720,0 L720,1280 L0,1280z"></path>
        </clipPath>
    </defs>
    <g clip-path="url(#animationMask_TD9YUSXUFJ)">
        <g class="png" transform="matrix(1,0,0,1,0,0)" opacity="1" style="display: block;">
            <image width="720px" height="1280px" preserveAspectRatio="xMidYMid slice" xlink:href="https://sf1-ttcdn-tos.pstatp.com/obj/web.business.image/201903155d0de60ea4c6aea84dbabca0"></image>
        </g>
        <g mask="url(#ly_Bw8UnoK21K)" style="display: block;">
            <g clip-path="url(#cp_3c2dm1Cr)" transform="matrix(1,0,0,1,0,0)" opacity="1">
                <g style="display: none;" transform="matrix(0.9599999785423279,0,0,0.9599999785423279,27.73333740234375,25.60003662109375)" opacity="1">
                    <image width="720px" height="1280px" preserveAspectRatio="xMidYMid slice" xlink:href="https://sf1-ttcdn-tos.pstatp.com/obj/web.business.image/201903315d0d4332742a74ec418b95bf"></image>
                </g>
                <g style="display: none;" transform="matrix(0.9599999785423279,0,0,0.9599999785423279,10.074859619140625,25.60003662109375)" opacity="0.007309999999927186">
                    <image width="720px" height="1280px" preserveAspectRatio="xMidYMid slice" xlink:href="https://sf1-ttcdn-tos.pstatp.com/obj/web.business.image/201903315d0d4ddab9ff19634cdbbbad"></image>
                </g>
                <g style="display: none;" transform="matrix(0.9599999785423279,0,0,0.9599999785423279,18.847900390625,25.60003662109375)" opacity="0.022653333333247757">
                    <image width="720px" height="1280px" preserveAspectRatio="xMidYMid slice" xlink:href="https://sf1-ttcdn-tos.pstatp.com/obj/web.business.image/201903315d0d379a69b60e1d4286bdd7"></image>
                </g>
                <g style="display: none;" transform="matrix(0.9599999785423279,0,0,0.9599999785423279,9.8642578125,25.60003662109375)" opacity="0.033633333333215346">
                    <image width="720px" height="1280px" preserveAspectRatio="xMidYMid slice" xlink:href="https://sf1-ttcdn-tos.pstatp.com/obj/web.business.image/201903315d0d3ecd75d8811b4c12992a"></image>
                </g>
                <g style="display: block;" transform="matrix(0.9599999785423279,0,0,0.9599999785423279,54.399993896484375,25.60003662109375)" opacity="1">
                    <image width="720px" height="1280px" preserveAspectRatio="xMidYMid slice" xlink:href="https://sf1-ttcdn-tos.pstatp.com/obj/web.business.image/201903315d0d45783f67129d47c8a6ac"></image>
                </g>
            </g>
        </g>
        <g clip-path="url(#PDvgqAgAZg)" style="display: block;" transform="matrix(1,0,0,1,-500,0)" opacity="1">
            <image width="720px" height="1280px" preserveAspectRatio="xMidYMid slice" xlink:href="https://sf1-ttcdn-tos.pstatp.com/obj/web.business.image/201903145d0d681a4e7c66784ea296a4"></image>
        </g>
        <g style="display: block;" transform="matrix(1,0,0,0.800000011920929,59.271575927734375,769.5953979492188)" opacity="0.4">
            <g opacity="1" transform="matrix(1,0,0,1,-184.3520050048828,87.97699737548828)">
                <path fill="rgb(255,94,147)" fill-opacity="1" d=" M122.9765625,-65.3125 C122.9765625,-65.3125 122.9765625,65.3125 122.9765625,65.3125 C122.9765625,65.3125 -122.9765625,65.3125 -122.9765625,65.3125 C-122.9765625,65.3125 -122.9765625,-65.3125 -122.9765625,-65.3125 C-122.9765625,-65.3125 122.9765625,-65.3125 122.9765625,-65.3125z"></path>
                <path stroke-linecap="butt" stroke-linejoin="miter" fill-opacity="0" stroke-miterlimit="4" stroke="rgb(255,94,147)" stroke-opacity="1" stroke-width="0" d=" M122.9765625,-65.3125 C122.9765625,-65.3125 122.9765625,65.3125 122.9765625,65.3125 C122.9765625,65.3125 -122.9765625,65.3125 -122.9765625,65.3125 C-122.9765625,65.3125 -122.9765625,-65.3125 -122.9765625,-65.3125 C-122.9765625,-65.3125 122.9765625,-65.3125 122.9765625,-65.3125z"></path>
            </g>
        </g>
        <g style="display: block;" transform="matrix(1,0,0,0.800000011920929,-3.2662353515625,880.1834106445312)" opacity="0.4">
            <g opacity="1" transform="matrix(1,0,0,1,-184.3520050048828,87.97699737548828)">
                <path fill="rgb(255,94,147)" fill-opacity="1" d=" M158.96875,-65.3125 C158.96875,-65.3125 158.96875,65.3125 158.96875,65.3125 C158.96875,65.3125 -158.96875,65.3125 -158.96875,65.3125 C-158.96875,65.3125 -158.96875,-65.3125 -158.96875,-65.3125 C-158.96875,-65.3125 158.96875,-65.3125 158.96875,-65.3125z"></path>
                <path stroke-linecap="butt" stroke-linejoin="miter" fill-opacity="0" stroke-miterlimit="4" stroke="rgb(255,94,147)" stroke-opacity="1" stroke-width="0" d=" M158.96875,-65.3125 C158.96875,-65.3125 158.96875,65.3125 158.96875,65.3125 C158.96875,65.3125 -158.96875,65.3125 -158.96875,65.3125 C-158.96875,65.3125 -158.96875,-65.3125 -158.96875,-65.3125 C-158.96875,-65.3125 158.96875,-65.3125 158.96875,-65.3125z"></path>
            </g>
        </g>
        <g style="display: block;" transform="matrix(1,0,0,0.800000011920929,-29.31085205078125,992.5953979492188)" opacity="0.4">
            <g opacity="1" transform="matrix(1,0,0,1,-184.3520050048828,87.97699737548828)">
                <path fill="rgb(255,94,147)" fill-opacity="1" d=" M266.953125,-65.3125 C266.953125,-65.3125 266.953125,65.3125 266.953125,65.3125 C266.953125,65.3125 -266.953125,65.3125 -266.953125,65.3125 C-266.953125,65.3125 -266.953125,-65.3125 -266.953125,-65.3125 C-266.953125,-65.3125 266.953125,-65.3125 266.953125,-65.3125z"></path>
                <path stroke-linecap="butt" stroke-linejoin="miter" fill-opacity="0" stroke-miterlimit="4" stroke="rgb(255,94,147)" stroke-opacity="1" stroke-width="0" d=" M266.953125,-65.3125 C266.953125,-65.3125 266.953125,65.3125 266.953125,65.3125 C266.953125,65.3125 -266.953125,65.3125 -266.953125,65.3125 C-266.953125,65.3125 -266.953125,-65.3125 -266.953125,-65.3125 C-266.953125,-65.3125 266.953125,-65.3125 266.953125,-65.3125z"></path>
            </g>
        </g>
        <g fill="rgb(255,236,130)" font-size="72" font-family="Lantinghei SC" font-style="normal" font-weight="600" style="display: block;" transform="matrix(1,0,0,1,-236,870)" opacity="1">
            <text text-anchor="start" letter-spacing="0">
                <tspan x="0" y="0" style="display: inherit;">春上新</tspan>
            </text>
        </g>
        <g style="display: block;" fill="rgb(255,236,130)" font-size="72" font-family="Lantinghei SC" font-style="normal" font-weight="600" transform="matrix(1,0,0,1,-334,978)" opacity="1">
            <text text-anchor="start" letter-spacing="0">
                <tspan x="0" y="0" style="display: inherit;">你的衣柜</tspan>
            </text>
        </g>
        <g style="display: block;" fill="rgb(255,236,130)" font-size="72" font-family="Lantinghei SC" font-style="normal" font-weight="600" transform="matrix(1,0,0,1,-464,1088)" opacity="1">
            <text text-anchor="start" letter-spacing="0">
                <tspan x="0" y="0" style="display: inherit;">还缺一条连衣裙</tspan>
            </text>
        </g>
    </g>
</svg>