<?xml version="1.0" encoding="UTF-8"?>
<svg width="24px" height="24px" viewBox="0 0 24 24" version="1.1" xmlns="http://www.w3.org/2000/svg" xmlns:xlink="http://www.w3.org/1999/xlink">
    <!-- Generator: Sketch 49.3 (51167) - http://www.bohemiancoding.com/sketch -->
    <title>Group 26</title>
    <desc>Created with Sketch.</desc>
    <defs></defs>
    <g id="导航及首页设计-v1.2" stroke="none" stroke-width="1" fill="none" fill-rule="evenodd">
        <g id="新版首页_已登录-copy-2" transform="translate(-1120.000000, -32.000000)" fill="#FFFFFF">
            <g id="顶部菜单（自适应优化）" transform="translate(0.000000, 20.000000)">
                <g id="Group-8" transform="translate(1076.000000, 12.000000)">
                    <g id="购物车_白" transform="translate(44.000000, 0.000000)">
                        <g id="Group-26">
                            <rect id="Rectangle-7" fill-opacity="0.01" x="0" y="0" width="24" height="24"></rect>
                            <path d="M23.75,1 L23.75,2.5 L22.75,2.5 C21.5073593,2.5 20.5,3.50735931 20.5,4.75 L20.5,15.75 C20.5,17.8210678 18.8210678,19.5 16.75,19.5 L4.75,19.5 C2.67893219,19.5 1,17.8210678 1,15.75 L1,7.75 C1,5.67893219 2.67893219,4 4.75,4 L15.75,4 L15.75,5.5 L4.75,5.5 C3.50735931,5.5 2.5,6.50735931 2.5,7.75 L2.5,15.75 C2.5,16.9926407 3.50735931,18 4.75,18 L16.75,18 C17.9926407,18 19,16.9926407 19,15.75 L19,4.75 C19,2.67893219 20.6789322,1 22.75,1 L23.75,1 Z M3.25,23.75 C2.42157288,23.75 1.75,23.0784271 1.75,22.25 C1.75,21.4215729 2.42157288,20.75 3.25,20.75 C4.07842712,20.75 4.75,21.4215729 4.75,22.25 C4.75,23.0784271 4.07842712,23.75 3.25,23.75 Z M18.25,23.75 C17.4215729,23.75 16.75,23.0784271 16.75,22.25 C16.75,21.4215729 17.4215729,20.75 18.25,20.75 C19.0784271,20.75 19.75,21.4215729 19.75,22.25 C19.75,23.0784271 19.0784271,23.75 18.25,23.75 Z M5.75,10.25 L5.75,8.75 L15.75,8.75 L15.75,10.25 L5.75,10.25 Z M5.75,15.25 L5.75,13.75 L15.75,13.75 L15.75,15.25 L5.75,15.25 Z" id="Combined-Shape" fill-rule="nonzero"></path>
                        </g>
                    </g>
                </g>
            </g>
        </g>
    </g>
</svg>