<?xml version="1.0" encoding="UTF-8"?>
<svg width="142px" height="28px" viewBox="0 0 142 28" version="1.1" xmlns="http://www.w3.org/2000/svg" xmlns:xlink="http://www.w3.org/1999/xlink">
    <!-- Generator: Sketch 52.5 (67469) - http://www.bohemiancoding.com/sketch -->
    <title>微博云剪LOGO反白</title>
    <desc>Created with Sketch.</desc>
    <g id="导航及首页设计-v1.2" stroke="none" stroke-width="1" fill="none" fill-rule="evenodd">
        <g id="新版首页_未登录" transform="translate(-36.000000, -29.000000)" fill="#FEFEFE">
            <g id="顶部菜单（自适应优化）" transform="translate(0.000000, 20.000000)">
                <g id="Group-10" transform="translate(24.000000, 0.000000)">
                    <g id="LOGO区域">
                        <g id="微博云剪LOGO反白" transform="translate(12.000000, 9.000000)">
                            <path d="M71.7990436,25.774 C71.6961915,26.2237722 71.3043569,26.5491392 70.8420561,26.5696962 L70.794011,26.5696962 C70.5954246,26.5750127 70.4064471,26.4842785 70.2865123,26.326557 C70.1665774,26.168481 70.1302767,25.9629114 70.1889985,25.774 L73.0599609,12.3212405 L71.3659258,12.3212405 C71.165204,12.3276203 70.9737353,12.2386582 70.8495298,12.0816456 C70.7253243,11.9246329 70.6833293,11.718 70.7367128,11.5251899 L70.7367128,11.4776962 C70.832803,11.0240253 71.2281965,10.6947595 71.6937003,10.6816456 L73.3877353,10.6816456 L74.5098556,5.42544304 C74.6098607,4.97921519 74.996001,4.6538481 75.4547429,4.62974684 L75.5024321,4.62974684 C75.7049333,4.61875949 75.8992491,4.70701266 76.0245223,4.86508861 C76.1497955,5.02316456 76.1896551,5.23227848 76.132001,5.42544304 L75.0095248,10.6816456 L76.7277604,10.6816456 C76.9295499,10.6710127 77.1245774,10.7589114 77.2494947,10.9169873 C77.3747679,11.0754177 77.4146276,11.2845316 77.3569734,11.4776962 L77.3569734,11.5251899 C77.2402416,11.9661013 76.8562366,12.285443 76.399986,12.3212405 L74.6821063,12.3212405 L71.7990436,25.774 Z M90.1067228,19.9648861 C90.3088682,19.9538987 90.5035398,20.0417975 90.6284571,20.2002278 C90.7537303,20.3586582 90.7939459,20.5677722 90.7359358,20.7605823 L90.7359358,20.8084304 C90.6330837,21.2578481 90.2412491,21.5835696 89.7789484,21.6041266 L88.9557754,21.6041266 L88.4461414,23.986962 C88.3703368,24.3413924 88.2251338,24.6773924 88.018006,24.9758228 C87.64361,25.6021013 87.062798,26.0791646 86.3741514,26.3269114 C86.0470887,26.4615949 85.6951138,26.527519 85.3410035,26.5197215 L83.2113594,26.5197215 C83.0074346,26.5367342 82.8077805,26.4548608 82.6757454,26.2989114 C82.5429985,26.1433165 82.4953093,25.9331392 82.5462015,25.7360759 L82.5462015,25.7119747 C82.6629333,25.2710633 83.0465825,24.9520759 83.5035449,24.9162785 L85.6566777,24.9162785 C85.9157654,24.9176962 86.1680912,24.8340506 86.3741514,24.6777468 C86.5802115,24.5026582 86.7243469,24.2662532 86.7855599,24.0036203 L87.2955499,21.6207848 L76.5291739,21.6207848 C76.3270286,21.6314177 76.1323569,21.543519 76.0070837,21.385443 C75.8821664,21.2273671 75.8419509,21.0182532 75.899605,20.8250886 L75.899605,20.7772405 C76.002813,20.3278228 76.3942917,20.0021013 76.8569484,19.9815443 L87.6233243,19.9815443 L87.6496602,19.8599747 C87.7525123,19.410557 88.1443469,19.0848354 88.6066476,19.0639241 L88.6304922,19.0639241 C88.8308581,19.0578987 89.0226827,19.1468608 89.1468882,19.3038734 C89.2714496,19.4605316 89.3130887,19.6671646 89.2600612,19.8599747 L89.2333694,19.9815443 L90.1067228,19.9648861 Z M90.9035599,6.3664557 C91.4139058,6.35972152 91.8637504,6.03010127 92.023189,5.54701266 C92.161986,5.1461519 92.539585,4.87572152 92.9659409,4.87253165 L92.9897855,4.87253165 C93.2018957,4.84843038 93.4079559,4.95263291 93.5136551,5.13693671 C93.6474697,5.31805063 93.678788,5.5544557 93.5972892,5.76392405 C93.3673845,6.33243038 93.0022416,6.83713924 92.5328231,7.23374684 C91.9822617,7.71222785 91.2818707,7.98549367 90.551585,8.00605063 L86.6784371,8.00605063 L86.352798,9.53329114 L89.9419459,9.53329114 C90.2768381,9.53187342 90.6088832,9.59708861 90.9177955,9.7264557 C91.4576802,9.99582278 91.848803,10.4913165 91.9851088,11.0771899 C92.0577103,11.4110633 92.0577103,11.7562785 91.9851088,12.0901519 L90.7551539,17.8510633 C90.6523018,18.3008354 90.2604672,18.626557 89.7981664,18.6474684 L89.7237855,18.6474684 C89.521996,18.6581013 89.3273243,18.5702025 89.2016952,18.4121266 C89.0767779,18.2533418 89.0369183,18.0442278 89.0949283,17.8510633 L89.2191338,17.2726329 L84.6996902,17.2726329 L84.5918556,17.7773418 C84.4751238,18.2186076 84.0914747,18.5375949 83.6348682,18.5733924 L83.5871789,18.5733924 C83.3864571,18.5797722 83.1949885,18.4908101 83.0704271,18.3337975 C82.9462216,18.1764304 82.9045825,17.9701519 82.95761,17.7773418 L83.0654446,17.2726329 L78.5196652,17.2726329 L78.3951038,17.8510633 C78.3018607,18.3018987 77.9118055,18.6304557 77.4502165,18.6474684 L77.4021714,18.6474684 C77.200382,18.6581013 77.0057103,18.5702025 76.8804371,18.4121266 C76.7555198,18.2533418 76.7149484,18.0442278 76.7733143,17.8510633 L78.0004221,12.0802278 C78.1712491,11.3646329 78.5801664,10.7270127 79.1609784,10.2719241 C79.4474697,10.0365823 79.7706175,9.84873418 80.1179659,9.71653165 C80.4400461,9.59248101 80.7820561,9.52691139 81.1276251,9.52372152 L84.716417,9.52372152 L85.039209,8.00605063 L79.6321764,8.00605063 C79.4314546,8.01243038 79.2396301,7.92346835 79.1157805,7.7664557 C78.9915749,7.60944304 78.9495799,7.40281013 79.0029634,7.21 L79.0029634,7.16250633 C79.1129333,6.71734177 79.5008531,6.39481013 79.9599509,6.3664557 L85.3577303,6.3664557 L85.549199,5.47541772 C85.6520511,5.026 86.0431739,4.70027848 86.5058306,4.67936709 L86.5538757,4.67936709 C86.7624271,4.66022785 86.9667078,4.74493671 87.0998105,4.90549367 C87.2332692,5.06640506 87.2777554,5.28260759 87.2190336,5.48250633 L87.0275649,6.37389873 L90.9035599,6.3664557 Z M80.2877253,24.3513165 C80.6297353,24.5685823 80.6464622,25.0495443 80.3236702,25.435519 L80.2948431,25.4592658 C79.9958957,25.8452405 79.4791439,25.990557 79.1442516,25.7477722 L76.7733143,24.1563797 C76.4572842,23.9391139 76.4142216,23.4581519 76.7398607,23.0718228 L76.7398607,23.0243291 C77.0889885,22.638 77.5936401,22.5476203 77.9096702,22.7599241 L80.2877253,24.3513165 Z M79.6154496,12.0802278 L79.507615,12.5856456 L84.0537504,12.5856456 L84.3573243,11.1558734 L80.7685323,11.1558734 C80.501615,11.1682785 80.2457303,11.2678734 80.0410937,11.4397722 C79.8222216,11.5918228 79.6684772,11.8207848 79.6104672,12.0802278 L79.6154496,12.0802278 Z M78.8595398,15.6234684 L83.4049634,15.6234684 L83.7138757,14.177038 L79.1680962,14.177038 L78.8595398,15.6234684 Z M90.3433895,12.0802278 C90.3974847,11.8562278 90.3451689,11.6201772 90.2024571,11.4397722 C90.0472892,11.2604304 89.8177404,11.1622532 89.5803619,11.1750127 L85.9915699,11.1750127 L85.6876401,12.6047848 L90.2263018,12.6047848 L90.3433895,12.0802278 Z M85.0513093,15.6234684 L89.5778707,15.6234684 L89.8864271,14.177038 L85.3598657,14.177038 L85.0513093,15.6234684 Z M115.651669,12.4402937 C115.85239,12.4335595 116.044215,12.5225215 116.168421,12.6798886 C116.292626,12.8369013 116.334265,13.0431797 116.281238,13.2359899 L116.281238,13.283838 C116.170912,13.7290025 115.783348,14.0511797 115.323894,14.0795342 L100.729568,14.0795342 L95.9898291,24.3729013 L109.763829,24.3729013 C110.156731,24.3530532 110.530416,24.1999392 110.823669,23.9390785 C111.134005,23.7019646 111.352165,23.3652557 111.441137,22.9863696 L112.285664,19.0334076 C112.392786,18.5910785 112.775012,18.2692557 113.230551,18.237357 L113.27824,18.237357 C113.475047,18.2341671 113.661533,18.3231291 113.781824,18.4780152 C113.901759,18.6329013 113.941263,18.835281 113.888591,19.0234835 L113.044065,22.9768 C112.966837,23.4045975 112.797789,23.8107747 112.548666,24.1680405 C112.085298,24.8868253 111.407684,25.4436354 110.610847,25.7597873 C110.22613,25.9182177 109.81401,25.9993823 109.397974,25.9979646 L94.7029318,25.9979646 C94.4801449,26.0192304 94.2662551,25.9054582 94.1594882,25.7094582 C94.0317238,25.4960911 94.0242501,25.2316861 94.1406261,25.0115848 L99.0857138,14.0912304 L95.7197088,14.0912304 C95.518987,14.0979646 95.3275183,14.0090025 95.2029569,13.8516354 C95.0787514,13.6949772 95.0371123,13.4883443 95.0904957,13.2955342 L95.0904957,13.2476861 C95.2004657,12.8025215 95.5880296,12.4803443 96.0474832,12.4519899 L115.651669,12.4402937 Z M116.175894,5.78550886 C116.377684,5.77452152 116.572711,5.86206582 116.697629,6.02085063 C116.822902,6.17892658 116.862761,6.38804051 116.804751,6.58120506 L116.804751,6.62905316 C116.709017,7.08236962 116.313268,7.41163544 115.84812,7.42474937 L98.0354832,7.42474937 C97.8322702,7.43998987 97.6340396,7.35315443 97.5080546,7.19366076 C97.3817138,7.03416709 97.3436336,6.82186329 97.4062702,6.62905316 L97.4062702,6.58120506 C97.5091223,6.13143291 97.9009569,5.80571139 98.3632576,5.78550886 L116.175894,5.78550886 Z M136.359326,19.8909519 C136.688168,19.8913063 137.013451,19.9568759 137.315957,20.0841165 C138.196784,20.493838 138.636664,21.3848759 138.409607,22.4478127 L138.079341,23.9917114 C137.817406,25.0791038 137.028754,25.9651797 135.976388,26.3554076 C135.648614,26.488319 135.296995,26.5538886 134.942885,26.5482177 L131.593251,26.5482177 C131.389682,26.5638127 131.191807,26.4773316 131.065822,26.3174835 C130.939481,26.1579899 130.901401,25.9460405 130.964038,25.7525215 C131.059772,25.2988506 131.455877,24.9699392 131.921025,24.9568253 L135.270303,24.9568253 C135.537932,24.9511544 135.796308,24.8586481 136.005216,24.6924203 C136.224444,24.5176861 136.372494,24.2695848 136.421607,23.993838 L136.751872,22.4502937 C136.82483,22.2259392 136.776784,21.980319 136.62482,21.7995595 C136.474634,21.6134835 136.241526,21.514243 136.002724,21.5351544 L123.130905,21.5351544 C123.114178,21.6046228 123.083927,21.6701924 123.042288,21.728319 C122.10701,23.3962684 120.599817,24.6686734 118.927491,25.5855848 C118.542063,25.8024962 118.132789,26.0194076 117.73099,26.2122177 C117.526709,26.2877114 117.305346,26.3043696 117.092168,26.2600658 C116.898208,26.1824456 116.76119,26.0084203 116.73094,25.8024962 L116.73094,25.7550025 C116.613852,25.3924203 116.876855,24.9589519 117.261927,24.7423949 C118.157346,24.3429519 119.003652,23.8414329 119.783762,23.2484709 C120.424008,22.7795595 120.974213,22.2004203 121.408043,21.5376354 L118.362694,21.5376354 C118.159481,21.5447241 117.965521,21.4546987 117.84096,21.2952051 C117.716398,21.1357114 117.676183,20.926243 117.733125,20.7320152 L117.733125,20.6845215 C117.836333,20.2351038 118.228168,19.9093823 118.690469,19.8884709 L136.359326,19.8909519 Z M141.144263,6.70259747 C141.344985,6.69586329 141.53681,6.78482532 141.660659,6.94219241 C141.784865,7.09920506 141.82686,7.30583797 141.773476,7.49829367 L141.773476,7.54614177 C141.663506,7.99130633 141.275942,8.31348354 140.816489,8.34183797 L121.250383,8.34183797 C121.048594,8.35247089 120.853922,8.26492658 120.728293,8.1064962 C120.603376,7.94842025 120.56316,7.73930633 120.62117,7.54614177 L120.62117,7.49829367 C120.724023,7.04923038 121.115501,6.72350886 121.578158,6.70259747 L123.564023,6.70259747 L123.822043,5.49717975 C123.932368,5.05201519 124.319932,4.72948354 124.779386,4.70112911 L124.803231,4.70112911 C125.003952,4.69474937 125.195777,4.78371139 125.319627,4.94072405 C125.443832,5.09773671 125.485827,5.30436962 125.432444,5.49717975 L125.174068,6.70259747 L137.471837,6.70259747 L137.730213,5.49717975 C137.840183,5.05201519 138.227747,4.72948354 138.687201,4.70112911 L138.735246,4.70112911 C138.933476,4.69616709 139.12281,4.78690127 139.242744,4.94462278 C139.362323,5.10198987 139.39898,5.30755949 139.340258,5.49717975 L139.081882,6.70259747 L141.144263,6.70259747 Z M119.850669,12.3447747 C119.934659,11.9191038 120.102639,11.5136354 120.346068,11.1535342 C120.805521,10.4347494 121.472815,9.87120506 122.260043,9.53804051 C122.646539,9.38563544 123.057591,9.30517975 123.472915,9.29986329 L128.976038,9.29986329 C129.719491,9.27966076 130.428779,9.60963544 130.890013,10.1909013 C131.095361,10.4765722 131.23914,10.8008759 131.313165,11.1439646 C131.395376,11.5384456 131.383987,11.9463949 131.280068,12.3355595 L130.083566,17.927762 C129.980714,18.3771797 129.589236,18.7025468 129.126579,18.7234582 C128.924078,18.7379899 128.727627,18.6536354 128.599506,18.4969772 C128.471386,18.340319 128.427967,18.1315595 128.48313,17.9369772 L128.581356,17.479762 L120.398383,17.479762 L120.300514,17.9369772 C120.190544,18.3821418 119.80298,18.704319 119.34317,18.7330278 L119.319682,18.7330278 C119.114689,18.7493316 118.914679,18.6642684 118.785491,18.5051291 C118.656303,18.3459899 118.614664,18.1333316 118.673742,17.9369772 L119.850669,12.3447747 Z M129.597777,12.7311038 L129.679276,12.3447747 C129.764689,11.9949519 129.692799,11.6256354 129.48318,11.3325215 C129.275697,11.0723696 128.954684,10.9288253 128.621927,10.9465468 L123.118805,10.9465468 C122.733376,10.9437114 122.360048,11.0808759 122.068574,11.3325215 C121.760729,11.5944456 121.548975,11.9506481 121.465697,12.3447747 L121.384554,12.7311038 L129.597777,12.7311038 Z M128.935466,15.8401671 L129.248649,14.3703443 L121.042188,14.3703443 L120.728649,15.8401671 L128.935466,15.8401671 Z M134.942885,15.1422937 C134.839677,15.5917114 134.448198,15.9174329 133.985897,15.9383443 L133.962053,15.9383443 C133.761331,15.9443696 133.569506,15.8554076 133.445301,15.6983949 C133.321095,15.5417367 133.279456,15.3351038 133.332484,15.1422937 L134.365987,10.2958127 C134.476313,9.8506481 134.863877,9.52847089 135.323331,9.50011646 L135.347175,9.50011646 C135.549321,9.48912911 135.743992,9.57702785 135.86891,9.73545823 C135.994539,9.89353418 136.034398,10.1026481 135.976388,10.2958127 L134.942885,15.1422937 Z M136.13903,17.4322684 C136.507376,17.4248253 136.858639,17.2780911 137.122709,17.0221924 C137.42486,16.7701924 137.628073,16.4200152 137.696759,16.0333316 L138.976539,10.0097873 C139.093271,9.56887595 139.477276,9.24988861 139.933882,9.21409114 L139.981571,9.21409114 C140.184073,9.20381266 140.379456,9.29100253 140.506509,9.44836962 C140.633561,9.60609114 140.67698,9.81485063 140.622529,10.0097873 L139.335276,16.0382937 C139.151992,16.863762 138.704639,17.6080658 138.060123,18.1588506 C137.74516,18.431762 137.387135,18.6515089 137.000639,18.8092304 C136.616634,18.9701418 136.203802,19.0513063 135.787411,19.0474076 L134.31118,19.0474076 C134.110815,19.0541418 133.91899,18.9651797 133.794784,18.8078127 C133.670223,18.6508 133.628584,18.4445215 133.682323,18.2517114 L133.682323,18.2279646 C133.791937,17.7828 134.179501,17.4606228 134.638955,17.4322684 L136.13903,17.4322684 Z M58.8601388,13.8628709 C59.0608607,13.8561367 59.2526852,13.9450987 59.3768907,14.1024658 C59.5007404,14.2591241 59.5427353,14.465757 59.4893519,14.6585671 L59.4893519,14.7060608 C59.379382,15.1512253 58.991818,15.473757 58.5323644,15.5021114 L52.7114321,15.5021114 C52.5092867,15.5127443 52.314615,15.4248456 52.1893419,15.2667696 C52.0644246,15.1083392 52.024209,14.8992253 52.082219,14.7060608 L52.082219,14.6585671 C52.1850712,14.2091494 52.5765499,13.8834278 53.0392065,13.8628709 L58.8601388,13.8628709 Z M53.9291444,12.1758532 C53.0536556,11.7420304 52.6322822,10.8747392 52.8547133,9.83803038 L53.6469238,6.12608101 C53.7636556,5.68516962 54.1473048,5.36582785 54.6039113,5.33038481 L54.6516005,5.33038481 C54.8537459,5.31939747 55.0484175,5.40694177 55.1736907,5.56572658 C55.2989639,5.72380253 55.3388236,5.93291646 55.2808135,6.12608101 L54.5010591,9.83803038 C54.440202,10.0630937 54.4868236,10.303043 54.6277559,10.4887646 C54.7612145,10.6673975 54.9761719,10.766638 55.1996707,10.7531696 L55.8050391,10.7531696 L56.9463774,5.42537215 C57.0421118,4.9720557 57.4378612,4.64278987 57.9033649,4.62967595 L57.9272095,4.62967595 C58.1307784,4.61408101 58.3282972,4.70091646 58.4546381,4.86041013 C58.5809789,5.02025823 58.6190591,5.23185316 58.5564226,5.42537215 L57.4246932,10.7531696 L58.0300617,10.7531696 C58.2852346,10.7535241 58.5311544,10.6585367 58.7190642,10.4862835 C58.9098211,10.3143848 59.0425679,10.0879038 59.0995103,9.83803038 L59.8913649,6.12608101 C60.0013348,5.68091646 60.3888987,5.35873924 60.8483524,5.33038481 L60.8963975,5.33038481 C61.0971193,5.32365063 61.288588,5.41261266 61.4127935,5.56962532 C61.536999,5.72699241 61.578994,5.93327089 61.5256105,6.12608101 L60.7337559,9.83803038 C60.4728887,10.9023848 59.7091494,11.7742835 58.6856105,12.1758532 C58.3663774,12.3179797 58.0208085,12.3917013 57.6709689,12.3924101 L54.850187,12.3924101 C54.5295303,12.4016253 54.2120767,12.3268405 53.9291444,12.1758532 Z M69.0718251,7.75759494 C69.1970982,7.91567089 69.2369579,8.12513924 69.1793038,8.31794937 C69.0796546,8.72696203 68.7479654,9.03886076 68.3322862,9.114 L68.3176947,9.18524051 C67.8130431,10.7532405 67.3009178,12.2471646 66.7507123,13.6935949 C66.1321759,15.3551646 65.4211083,16.9805823 64.6214241,18.5638228 L65.4563414,24.9758228 C65.4830331,25.4387089 65.1855093,25.8583544 64.7385118,25.9884304 C64.5523815,26.0773924 64.3352887,26.074557 64.1512937,25.9809873 C63.9676546,25.8874177 63.8377549,25.7141013 63.8007424,25.5120759 L63.2170832,21.0990633 C62.9156446,21.6055443 62.5892937,22.1116709 62.2383865,22.6170886 C61.6369328,23.4850886 60.8632286,24.5671646 60.2272536,25.2558228 C59.6734892,25.9334937 58.8492486,26.341443 57.9652185,26.3577468 C57.9652185,26.3577468 55.9868276,26.4747089 55.6661709,24.8422025 C55.5978401,24.3807342 55.6252436,23.9104051 55.7476697,23.4602785 L56.5679955,19.7075696 C56.5679955,19.7075696 56.8075093,18.766557 55.898211,18.766557 L53.9123464,18.766557 C53.9123464,18.766557 53.0774291,18.7399747 52.8119353,19.7192658 L51.2040256,25.554962 C51.1033088,26.0242278 50.6552436,26.336481 50.1776396,26.2694937 C50.1776396,26.2694937 49.3619404,26.2624051 49.5939805,25.4238228 L49.5914892,25.4213418 L51.2901509,19.3024557 C51.2901509,19.3024557 51.9553088,17.3080759 54.1468777,17.1081772 L56.3455644,17.1081772 C56.3455644,17.1081772 58.2428125,17.089038 58.2428125,19.3977975 L57.2858251,24.0131899 C57.2858251,24.0131899 57.0658852,24.9662532 58.2428125,24.8542532 C58.2428125,24.8542532 58.6969278,24.8517722 59.2574541,24.1609873 C60.7279905,22.3867089 61.8031333,20.6071139 62.8893088,18.542557 L62.0088376,11.5514177 C61.9718251,11.1027089 62.2551133,10.6890886 62.6882311,10.5600759 L62.7409028,10.5363291 C62.9220506,10.4657975 63.1252637,10.4778481 63.2964466,10.5696456 C63.4679855,10.6610886 63.5904115,10.8234177 63.630983,11.013038 L64.2313689,15.6904557 C64.5616346,14.9422532 64.8751734,14.1462025 65.1883564,13.3526329 C65.6958551,12.0018987 66.1620707,10.605443 66.6503514,9.10903797 L63.1669028,9.10903797 C62.940201,9.12640506 62.7241759,9.0136962 62.6092236,8.81840506 C62.5074391,8.60539241 62.5074391,8.35729114 62.6092236,8.14427848 L63.8559053,5.37086076 C64.0324266,4.9501519 64.4723063,4.70205063 64.9253539,4.76762025 L64.9730431,4.76762025 C65.1694942,4.80696203 65.3321358,4.94377215 65.4036697,5.13020253 C65.4684416,5.32797468 65.4570531,5.54240506 65.3727073,5.73273418 L64.602206,7.52225316 L68.5500907,7.52225316 C68.7522361,7.51162025 68.9465519,7.59951899 69.0718251,7.75759494 Z M50.502994,11.2011696 C50.812618,11.3213215 50.9816657,11.6537772 50.8955404,11.9734734 L47.9790241,25.6427899 C47.8761719,26.092562 47.4843373,26.4182835 47.0220366,26.4388405 L46.9978361,26.4388405 C46.7974702,26.4452203 46.6056456,26.3562582 46.4814401,26.1988911 C46.3572346,26.0422329 46.3152396,25.8356 46.3686231,25.6427899 L48.7039714,14.696562 L47.5074702,16.0476506 C47.3480316,16.2269924 47.133786,16.3492709 46.8974752,16.3953468 C46.6939063,16.4520557 46.47539,16.3967646 46.3234251,16.2500304 L46.2803624,16.226638 C45.9693148,15.9881063 45.9789238,15.478081 46.294598,15.142081 L49.5652246,11.525119 C49.7951293,11.255043 50.1545779,11.1309924 50.502994,11.2011696 Z M47.2803769,11.4393114 L47.2803769,11.415919 C46.9693293,11.1773873 46.9789383,10.667362 47.3234396,10.3079696 L51.8549835,5.33034937 C52.1332892,4.97981772 52.6326025,4.89652658 53.0105574,5.13718481 L53.0105574,5.16093165 C53.2977604,5.39946329 53.3166226,5.87581772 52.9721213,6.24513418 L48.4455599,11.2011342 C48.1199208,11.5871089 47.5914246,11.677843 47.2803769,11.4393114 Z" id="合并形状"></path>
                            <g id="Group-13">
                                <path d="M37.3058912,2.99043544 L37.2962822,2.99291646 C39.4711243,5.39382785 40.1953599,8.76800506 39.1960216,11.8444608 C38.9536607,12.5072456 38.2283574,12.8599038 37.555014,12.6429924 C36.8813148,12.426081 36.5005128,11.7175747 36.693405,11.0391949 C37.4073198,8.85094177 36.8930591,6.44967595 35.3452947,4.74132152 C33.7975303,3.03332152 31.4515053,2.27838481 29.1926732,2.76147342 C28.4826732,2.90962532 27.786197,2.45630886 27.6374351,1.74886582 C27.4890291,1.04177722 27.944212,0.348156962 28.654212,0.200359494 C31.8315955,-0.475893671 35.1296256,0.587751899 37.3058912,2.99043544 Z M33.8415183,6.10208608 L33.8486361,6.10208608 C34.9091875,7.27170633 35.2615183,8.91626329 34.7721699,10.4147949 C34.652591,10.8043139 34.3319343,11.0992 33.9326261,11.1863899 C33.5336737,11.2739342 33.1179945,11.1399595 32.8457388,10.8362127 C32.5734832,10.5328203 32.4866461,10.1067949 32.6186812,9.72152911 C32.8642451,8.98821266 32.6944857,8.17975696 32.1741749,7.60628861 C31.6542201,7.03246582 30.8641449,6.78188354 30.1068115,6.95059241 C29.4957489,7.08208608 28.8928717,6.69540253 28.7608366,6.08684557 C28.6288015,5.47793418 29.0170772,4.87788354 29.6281398,4.74638987 C31.1748366,4.41499747 32.7816787,4.93211139 33.8415183,6.10208608 Z M35.0689108,25.9979646 C35.6027454,25.9979646 36.0355073,26.4339139 36.0355073,26.9722937 C36.0355073,27.5106734 35.6027454,27.9469772 35.0689108,27.9469772 L8.58110627,27.9469772 L8.58110627,27.9519392 C4.69763759,27.7906734 1.36188321,25.1522937 0.325176441,21.4215595 C-0.711886216,17.6908253 0.787121303,13.7201418 4.03461504,11.5932051 C5.88915639,10.3789266 8.07218396,9.92419241 10.1673068,10.2095089 C11.4157679,7.60161013 13.7806551,5.65082532 16.6505499,4.9448 C20.0428907,4.10976203 23.6249208,5.14044557 26.0471063,7.64874937 C27.6881138,9.34824304 28.6276627,11.5506734 28.7618331,13.8342684 C30.4818481,13.5301671 32.315392,13.9508759 33.7645749,15.1300658 C36.175016,17.0911291 36.7330511,20.5081924 35.1351063,23.114319 C34.8824246,23.6860152 34.3083744,24.0847494 33.6403694,24.0847494 C32.7392566,24.0847494 32.008615,23.3581671 32.008615,22.4618127 C32.008615,22.0822177 32.1399383,21.7331038 32.3595223,21.4566481 C33.0816226,20.286319 32.8951363,18.7647494 31.8950862,17.801762 C30.9007303,16.8444456 29.3789459,16.7058633 28.2308456,17.4501671 C27.9151714,17.7489519 27.4881038,17.9321924 27.0179734,17.9321924 C26.0453268,17.9321924 25.2570311,17.1471291 25.2570311,16.1788253 C25.2570311,16.0157873 25.2794521,15.8584203 25.3210912,15.7084962 L25.3143293,15.7045975 C25.3182441,15.7003443 25.321803,15.6968 25.3257178,15.6929013 C25.3371063,15.6528506 25.3499183,15.6135089 25.3641539,15.5748759 C25.9851815,12.2517367 23.9174622,9.00090127 20.6130261,8.15345823 C17.7068306,7.4088 14.7369308,8.75138228 13.3368607,11.2681924 C13.7635724,11.5070785 14.174981,11.7835342 14.5657479,12.0961418 C17.5940135,14.5229266 18.7043895,18.6183696 17.3139283,22.2332051 L17.3028957,22.2293063 C17.0690762,22.8176608 16.4925348,23.233762 15.8184797,23.233762 C14.9372967,23.233762 14.2226702,22.5224203 14.2226702,21.6448506 C14.2226702,21.4775595 14.2486501,21.3162937 14.2966952,21.1649519 L14.2920687,21.1631797 C15.2131113,18.8622177 14.5419033,16.2323443 12.6293519,14.6487494 C10.7168005,13.0648 7.9981589,12.8875848 5.89413885,14.2089013 C3.79047469,15.5309266 2.78081554,18.051281 3.39258997,20.4525468 C4.00436441,22.8534582 6.09913133,24.5887494 8.58110627,24.7514329 L35.0689108,25.9979646 Z M7.93021955,16.3992456 L11.4592221,18.6424354 L11.4592221,18.6477519 C11.6151018,18.756562 11.717598,18.9362582 11.717598,19.1404101 C11.717598,19.344562 11.6151018,19.5242582 11.4592221,19.6334228 L11.4592221,19.6359038 L7.93021955,21.8805114 L7.92701654,21.8787392 C7.83057043,21.9432456 7.71526216,21.9804608 7.59034486,21.9804608 C7.26933233,21.9804608 7.00882105,21.7305873 6.98889123,21.4151443 L6.98533233,21.4133722 L6.98533233,16.8646127 L6.98853534,16.8631949 C7.00739749,16.547043 7.26826466,16.2953975 7.59034486,16.2953975 C7.71632982,16.2953975 7.83341754,16.3336759 7.93021955,16.3992456 Z" id="合并形状"></path>
                            </g>
                        </g>
                    </g>
                </g>
            </g>
        </g>
    </g>
</svg>