<?xml version="1.0" encoding="UTF-8"?>
<svg width="94px" height="27px" viewBox="0 0 94 27" version="1.1" xmlns="http://www.w3.org/2000/svg" xmlns:xlink="http://www.w3.org/1999/xlink">
    <!-- Generator: Sketch 52.3 (67297) - http://www.bohemiancoding.com/sketch -->
    <title>导航-白@1x</title>
    <desc>Created with Sketch.</desc>
    <defs>
        <polygon id="path-1" points="0.326922535 0.136607551 25.4201353 0.136607551 25.4201353 21.2323963 0.326922535 21.2323963"></polygon>
        <polygon id="path-3" points="4.12623025e-05 0.0971959759 36.0394545 0.0971959759 36.0394545 22.5857704 4.12623025e-05 22.5857704"></polygon>
    </defs>
    <g id="导航及首页设计-v1.2" stroke="none" stroke-width="1" fill="none" fill-rule="evenodd">
        <g id="画板" transform="translate(-40.000000, -15.000000)">
            <g id="导航-白" transform="translate(40.000000, 15.000000)">
                <path d="M67.5934304,12.2193048 C67.7941522,12.2128028 67.9859768,12.2986972 68.1101823,12.4506378 C68.2343878,12.6022362 68.2760269,12.8014017 68.2229993,12.9875632 L68.2229993,13.0337613 C68.1126735,13.4635754 67.7251096,13.774643 67.265656,13.8020197 L52.6713302,13.8020197 L47.9315908,23.7404431 L61.7055908,23.7404431 C62.0984931,23.7212794 62.4721773,23.5734453 62.7654304,23.3215797 C63.0757663,23.0926422 63.2939267,22.767544 63.3828991,22.4017229 L64.2274254,18.5850699 C64.3345482,18.1579935 64.7167738,17.8472681 65.1723126,17.8164693 L65.2200019,17.8164693 C65.4168089,17.8133894 65.6032951,17.8992838 65.7235858,18.048829 C65.8435206,18.1983742 65.8830244,18.3937753 65.8303527,18.5754881 L64.9858264,22.3924833 C64.9085983,22.8055291 64.7395507,23.1977002 64.4904279,23.5426465 C64.0270595,24.2366457 63.3494455,24.7742554 62.5526084,25.0795055 C62.1678916,25.2324728 61.7557713,25.3108386 61.3397362,25.3094698 L46.6446936,25.3094698 C46.4219066,25.3300023 46.2080169,25.2201533 46.10125,25.0309119 C45.9734856,24.8249023 45.9660119,24.5696147 46.0823878,24.3571031 L51.0274755,13.8133126 L47.6614705,13.8133126 C47.4607487,13.8198146 47.26928,13.7339202 47.1447186,13.5819796 C47.0205131,13.4307234 46.978874,13.2312157 47.0322575,13.0450542 L47.0322575,12.998856 C47.1422274,12.569042 47.5297913,12.2579743 47.989245,12.2305976 L67.5934304,12.2193048 Z M68.117656,5.79399529 C68.3194455,5.78338682 68.514473,5.86791235 68.6393903,6.02122183 C68.7646635,6.17384688 68.8045232,6.37574998 68.7465131,6.56225369 L68.7465131,6.60845186 C68.6507788,7.04613671 68.2550294,7.36404854 67.7898816,7.37671026 L49.977245,7.37671026 C49.7740319,7.39142523 49.5758014,7.30758411 49.4498164,7.15359022 C49.3234755,6.99959634 49.2853953,6.79461336 49.3480319,6.60845186 L49.3480319,6.56225369 C49.4508841,6.12799092 49.8427186,5.81350118 50.3050194,5.79399529 L68.117656,5.79399529 Z" id="Fill-3" fill="#FFFFFF"></path>
                <g id="Group-7" transform="translate(68.000000, 4.827586)">
                    <mask id="mask-2" fill="white">
                        <use xlink:href="#path-1"></use>
                    </mask>
                    <g id="Clip-6"></g>
                    <path d="M19.983386,14.8029535 C20.3122281,14.8032957 20.6375113,14.8666043 20.9400175,14.9894572 C21.8208446,15.3850504 22.2607243,16.2453629 22.0336667,17.2716466 L21.703401,18.7623075 C21.4414662,19.8122036 20.6528145,20.6677252 19.6004486,21.0444969 C19.2726742,21.1728251 18.9210551,21.2361337 18.5669449,21.2306584 L15.2173108,21.2306584 C15.0137419,21.2457156 14.8158672,21.1622167 14.6898822,21.0078806 C14.5635414,20.8538867 14.5254612,20.6492459 14.5880977,20.4624 C14.6838321,20.0243729 15.0799373,19.7068033 15.5450852,19.6941416 L18.8943634,19.6941416 C19.1619925,19.6886663 19.4203684,19.5993498 19.6292757,19.438854 C19.8485038,19.2701451 19.9965539,19.030599 20.0456667,18.7643607 L20.3759323,17.2740421 C20.4488897,17.057424 20.4008446,16.8202734 20.2488797,16.645747 C20.0986942,16.4660875 19.8655865,16.3702691 19.6267845,16.3904594 L6.75496491,16.3904594 C6.7382381,16.4575323 6.70798747,16.5208409 6.66634837,16.5769631 C5.73107018,18.1873969 4.22387719,19.415926 2.55155138,20.3012197 C2.16612281,20.5106514 1.75684962,20.7200831 1.35505013,20.9062446 C1.15076942,20.9791351 0.929406015,20.9952189 0.71622807,20.9524428 C0.52226817,20.8774991 0.385250627,20.7094746 0.355,20.5106514 L0.355,20.4647955 C0.237912281,20.114716 0.500914787,19.6961948 0.885987469,19.4871054 C1.78140602,19.1014362 2.62771178,18.617211 3.40782206,18.0446959 C4.04806767,17.5919539 4.59827318,17.032785 5.03210276,16.3928548 L1.98675439,16.3928548 C1.78354135,16.399699 1.58958145,16.312778 1.46502005,16.1587841 C1.34045865,16.0047902 1.30024311,15.8025449 1.35718546,15.6150146 L1.35718546,15.5691586 C1.46039348,15.1352381 1.85222807,14.8207483 2.31452882,14.800558 L19.983386,14.8029535 Z M24.7683233,2.06936988 C24.9690451,2.06286792 25.1608697,2.14876229 25.2847193,2.30070292 C25.4089248,2.45230135 25.4509198,2.65180899 25.3975363,2.83762828 L25.3975363,2.88382645 C25.2875664,3.31364051 24.9000025,3.62470816 24.4405489,3.65208485 L4.87444361,3.65208485 C4.67265414,3.66235111 4.47798246,3.57782558 4.35235338,3.42485832 C4.22743609,3.27223326 4.18722055,3.07033016 4.24523058,2.88382645 L4.24523058,2.83762828 C4.34808271,2.40404993 4.7395614,2.08956019 5.20221805,2.06936988 L7.18808271,2.06936988 L7.44610276,0.905518289 C7.55642857,0.475704234 7.94399248,0.164294369 8.40344612,0.136917678 L8.42729073,0.136917678 C8.62801253,0.130757922 8.81983709,0.216652292 8.94368672,0.36825072 C9.06789223,0.519849149 9.10988722,0.719356787 9.05650376,0.905518289 L8.79812782,2.06936988 L21.0958972,2.06936988 L21.3542732,0.905518289 C21.4642431,0.475704234 21.851807,0.164294369 22.3112607,0.136917678 L22.3593058,0.136917678 C22.5575363,0.132126757 22.7468697,0.219732169 22.8668045,0.372015015 C22.9863835,0.523955653 23.0230401,0.722436665 22.9643183,0.905518289 L22.7059424,2.06936988 L24.7683233,2.06936988 Z M3.47472932,7.51698926 C3.5587193,7.10599668 3.72669925,6.71451 3.97012782,6.36682601 C4.42958145,5.67282689 5.09687469,5.12871515 5.88410276,4.80703902 C6.270599,4.65988931 6.68165163,4.58220794 7.09697494,4.57707481 L12.6000977,4.57707481 C13.3435514,4.55756892 14.0528396,4.87616517 14.5140727,5.43738734 C14.7194211,5.71320751 14.8632005,6.02632842 14.9372256,6.35758638 C15.0194361,6.7384646 15.0080476,7.13234675 14.9041278,7.50809184 L13.7076266,12.9074598 C13.6047744,13.3413804 13.2132957,13.6555279 12.7506391,13.6757182 C12.5481378,13.6897488 12.3516867,13.6083031 12.2235664,13.4570469 C12.0954461,13.3057907 12.0520276,13.1042298 12.1071905,12.9163572 L12.205416,12.4749081 L4.02244361,12.4749081 L3.92457393,12.9163572 C3.81460401,13.3461713 3.4270401,13.6572389 2.96723058,13.6849578 L2.94374185,13.6849578 C2.73874937,13.7006994 2.53873935,13.6185694 2.40955138,13.4649177 C2.28036341,13.311266 2.23872431,13.1059408 2.29780201,12.9163572 L3.47472932,7.51698926 Z M13.2218371,7.88999668 L13.3033358,7.51698926 C13.3887494,7.17922933 13.3168596,6.82264793 13.1072406,6.53964138 C12.8997569,6.28846024 12.5787444,6.14986574 12.2459875,6.16697617 L6.74286466,6.16697617 C6.35743609,6.1642385 5.98410777,6.29667324 5.69263409,6.53964138 C5.38478947,6.79253357 5.17303509,7.13645325 5.08975689,7.51698926 L5.00861404,7.88999668 L13.2218371,7.88999668 Z M12.5595263,10.8918509 L12.8727093,9.47271165 L4.66624812,9.47271165 L4.35270927,10.8918509 L12.5595263,10.8918509 Z M18.5669449,10.2180421 C18.4637368,10.6519626 18.0722581,10.9664524 17.6099574,10.9866427 L17.5861128,10.9866427 C17.385391,10.9924602 17.1935664,10.9065659 17.0693609,10.7549674 C16.9451554,10.6037112 16.9035163,10.4042036 16.9565439,10.2180421 L17.9900476,5.5386811 C18.1003734,5.10886704 18.4879373,4.79779939 18.947391,4.7704227 L18.9712356,4.7704227 C19.173381,4.75981423 19.3680526,4.84468197 19.4929699,4.99764924 C19.618599,5.15027429 19.6584586,5.35217739 19.6004486,5.5386811 L18.5669449,10.2180421 Z M19.7630902,12.4290521 C20.1314361,12.4218657 20.4826992,12.2801914 20.7467694,12.0331167 C21.0489198,11.7898064 21.2521328,11.4517042 21.3208195,11.0783546 L22.600599,5.26251873 C22.7173308,4.83681117 23.1013358,4.5288234 23.5579424,4.49426032 L23.6056316,4.49426032 C23.8081328,4.48433627 24.0035163,4.5685196 24.1305689,4.72046024 C24.2576216,4.87274308 24.3010401,5.07430397 24.246589,5.26251873 L22.9593358,11.0831455 C22.7760526,11.8801495 22.3286992,12.5987876 21.684183,13.1305798 C21.3692206,13.3940805 21.0111955,13.6062498 20.6246992,13.7585327 C20.2406942,13.9138954 19.8278622,13.9922612 19.4114712,13.9884969 L17.9352406,13.9884969 C17.7348747,13.9949989 17.5430501,13.9091045 17.4188446,13.7571639 C17.2942832,13.6055654 17.2526441,13.4064 17.3063835,13.2202385 L17.3063835,13.1973105 C17.4159975,12.7674965 17.8035614,12.4564288 18.263015,12.4290521 L19.7630902,12.4290521 Z" id="Fill-5" fill="#FFFFFF" mask="url(#mask-2)"></path>
                </g>
                <path d="M37.3058912,2.88731698 C35.1296256,0.567484592 31.8315955,-0.459483544 28.654212,0.193450546 C27.944212,0.33615155 27.4890291,1.00585386 27.6374351,1.6885601 C27.786197,2.37160856 28.4826732,2.80929341 29.1926732,2.6662502 C31.4515053,2.19981982 33.7975303,2.92872423 35.3452947,4.57782767 C36.8930591,6.22727333 37.4073198,8.54573688 36.693405,10.658533 C36.5005128,11.3135204 36.8813148,11.9975955 37.555014,12.2070271 C38.2283574,12.4164588 38.9536607,12.0759612 39.1960216,11.4360311 C40.1953599,8.46566006 39.4711243,5.20783378 37.2962822,2.88971244" id="Fill-18" fill="#FFFFFF"></path>
                <path d="M33.8415183,5.89166931 C32.7816787,4.76203859 31.1748366,4.26275618 29.6281398,4.58272126 C29.0170772,4.70968066 28.6288015,5.2890399 28.7608366,5.87695434 C28.8928717,6.46452658 29.4957489,6.83787621 30.1068115,6.7109168 C30.8641449,6.54802549 31.6542201,6.789967 32.1741749,7.34400279 C32.6944857,7.89769638 32.8642451,8.67827429 32.6186812,9.38630397 C32.4866461,9.75828477 32.5734832,10.1696196 32.8457388,10.4625502 C33.1179945,10.755823 33.5336737,10.8851778 33.9326261,10.8006523 C34.3319343,10.716469 34.652591,10.4317514 34.7721699,10.0556641 C35.2615183,8.60880594 34.9091875,7.02095784 33.8486361,5.89166931" id="Fill-20" fill="#FFFFFF"></path>
                <g id="Group-24" transform="translate(0.000000, 4.402104)">
                    <mask id="mask-4" fill="white">
                        <use xlink:href="#path-3"></use>
                    </mask>
                    <g id="Clip-23"></g>
                    <path d="M35.0689108,20.6993795 L8.58110627,19.4958317 C6.09913133,19.3387579 4.00436441,17.6633044 3.39258997,15.3451831 C2.78081554,13.0267195 3.79047469,10.5932739 5.89413885,9.31683562 C7.9981589,8.0410818 10.7168005,8.21218612 12.6293519,9.74151654 C14.5419033,11.2705048 15.2131113,13.8096929 14.2920687,16.0313114 L14.2966952,16.0330224 C14.2486501,16.1791455 14.2226702,16.3348505 14.2226702,16.4963729 C14.2226702,17.3436815 14.9372967,18.0304943 15.8184797,18.0304943 C16.4925348,18.0304943 17.0690762,17.6287413 17.3028957,17.060675 L17.3139283,17.0644393 C18.7043895,13.5742533 17.5940135,9.62003247 14.5657479,7.2769299 C14.174981,6.97510188 13.7635724,6.70817914 13.3368607,6.47753051 C14.7369308,4.04750694 17.7068306,2.7512206 20.6130261,3.47020096 C23.9174622,4.28842182 25.9851815,7.42715949 25.3641539,10.6357077 C25.3499183,10.6730085 25.3371063,10.7109936 25.3257178,10.7496632 C25.321803,10.7534275 25.3182441,10.7568496 25.3143293,10.7609561 L25.3210912,10.7647204 C25.2794521,10.9094746 25.2570311,11.0614153 25.2570311,11.2188313 C25.2570311,12.1537453 26.0453268,12.9117374 27.0179734,12.9117374 C27.4881038,12.9117374 27.9151714,12.7348155 28.2308456,12.4463337 C29.3789459,11.7276955 30.9007303,11.8614991 31.8950862,12.7858046 C32.8951363,13.7155855 33.0816226,15.1846872 32.3595223,16.3146601 C32.1399383,16.5815829 32.008615,16.9186584 32.008615,17.2851639 C32.008615,18.1506095 32.7392566,18.8521372 33.6403694,18.8521372 C34.3083744,18.8521372 34.8824246,18.4671525 35.1351063,17.91517 C36.7330511,15.3989098 36.175016,12.0996763 33.7645749,10.2062359 C32.315392,9.06770773 30.4818481,8.66150607 28.7618331,8.95512108 C28.6276627,6.7502708 27.6881138,4.62378629 26.0471063,2.98289585 C23.6249208,0.56108529 20.0428907,-0.434057442 16.6505499,0.37218612 C13.7806551,1.05386574 11.4157679,2.9373821 10.1673068,5.4553533 C8.07218396,5.17987534 5.88915639,5.61892903 4.03461504,6.79133584 C0.787121303,8.8449299 -0.711886216,12.6786933 0.325176441,16.2807815 C1.36188321,19.8828697 4.69763759,22.4302708 8.58110627,22.5859757 L8.58110627,22.5811848 L35.0689108,22.5811848 C35.6027454,22.5811848 36.0355073,22.159926 36.0355073,21.640111 C36.0355073,21.1202961 35.6027454,20.6993795 35.0689108,20.6993795" id="Fill-22" fill="#FFFFFF" mask="url(#mask-4)"></path>
                </g>
                <path d="M7.93021955,15.8337543 C7.83341754,15.7704457 7.71632982,15.7334872 7.59034486,15.7334872 C7.26826466,15.7334872 7.00739749,15.9764553 6.98853534,16.2817055 L6.98533233,16.2830743 L6.98533233,20.67498 L6.98889123,20.6766911 C7.00882105,20.9812567 7.26933233,21.2225138 7.59034486,21.2225138 C7.71526216,21.2225138 7.83057043,21.1865819 7.92701654,21.1243 L7.93021955,21.126011 L11.4592221,18.9588037 L11.4592221,18.9564082 C11.6151018,18.8510079 11.717598,18.6775082 11.717598,18.480396 C11.717598,18.2832838 11.6151018,18.109784 11.4592221,18.004726 L11.4592221,17.9995928 L7.93021955,15.8337543 Z" id="Fill-25" fill="#FFFFFF"></path>
            </g>
        </g>
    </g>
</svg>