<?xml version="1.0" encoding="UTF-8"?>
<svg width="24px" height="24px" viewBox="0 0 24 24" version="1.1" xmlns="http://www.w3.org/2000/svg" xmlns:xlink="http://www.w3.org/1999/xlink">
    <!-- Generator: Sketch 49.3 (51167) - http://www.bohemiancoding.com/sketch -->
    <title>提醒_白</title>
    <desc>Created with Sketch.</desc>
    <defs></defs>
    <g id="导航及首页设计-v1.2" stroke="none" stroke-width="1" fill="none" fill-rule="evenodd">
        <g id="新版首页_活动图只有一个时" transform="translate(-1168.000000, -32.000000)" fill="#FFFFFF">
            <g id="顶部菜单（自适应优化）" transform="translate(0.000000, 20.000000)">
                <g id="Group-8" transform="translate(1072.000000, 12.000000)">
                    <g id="提醒_白" transform="translate(96.000000, 0.000000)">
                        <rect id="底" fill-opacity="0.01" transform="translate(12.000000, 12.000000) rotate(90.000000) translate(-12.000000, -12.000000) " x="0" y="0" width="24" height="24"></rect>
                        <path d="M13.3786797,20 L14.8786797,20 L14.8786797,20.75 C14.8786797,22.4068542 13.5355339,23.75 11.8786797,23.75 C10.2218254,23.75 8.87867966,22.4068542 8.87867966,20.75 L8.87867966,20 L10.3786797,20 L10.3786797,20.75 C10.3786797,21.5784271 11.0502525,22.25 11.8786797,22.25 C12.7071068,22.25 13.3786797,21.5784271 13.3786797,20.75 L13.3786797,20 Z M13.3786797,20 L14.8786797,20 L14.8786797,20.75 C14.8786797,22.4068542 13.5355339,23.75 11.8786797,23.75 C10.2218254,23.75 8.87867966,22.4068542 8.87867966,20.75 L8.87867966,20 L10.3786797,20 L10.3786797,20.75 C10.3786797,21.5784271 11.0502525,22.25 11.8786797,22.25 C12.7071068,22.25 13.3786797,21.5784271 13.3786797,20.75 L13.3786797,20 Z M10.8786961,3.37576414 L10.8720693,4.41760677 L9.8934722,4.77513668 C7.51729767,5.64327073 5.90789229,7.89435175 5.90789229,10.4444444 L5.90789229,17.1005572 L3.50171447,19.4901199 C3.50057149,19.4927807 9.16052615,19.4960741 20.4815785,19.5 C20.4942405,19.4944913 19.6977502,18.694677 18.0921077,17.1005572 L18.0921077,10.4444444 C18.0921077,7.81967185 16.3870103,5.51718537 13.9102934,4.7072246 L12.9227069,4.38425416 L12.8779327,3.34616343 C12.858305,2.89109445 12.431469,2.5 11.8786797,2.5 C11.3127591,2.5 10.88167,2.90822689 10.8786961,3.37576414 Z M9.37872649,3.36622333 C9.38704743,2.05803774 10.5031266,1 11.8786797,1 C13.2244202,1 14.3218122,2.01267276 14.3765394,3.28152664 C17.4055457,4.27210261 19.5921077,7.10468731 19.5921077,10.4444444 L19.5921077,16.4761905 L21.5552646,18.4257914 C22.1482451,19.0146772 22.1482451,19.9694498 21.5552646,20.5583356 C21.2705053,20.8411286 20.8842889,21 20.4815785,21 L3.51842154,21 C2.67982048,21 2,20.3248738 2,19.4920635 C2,19.0921339 2.1599761,18.7085843 2.44473537,18.4257914 L4.40789229,16.4761905 L4.40789229,10.4444444 C4.40789229,7.19532864 6.47737788,4.42622942 9.37872649,3.36622333 Z" id="Combined-Shape" fill-rule="nonzero"></path>
                    </g>
                </g>
            </g>
        </g>
    </g>
</svg>