<?xml version="1.0" encoding="UTF-8"?>
<svg width="40px" height="40px" viewBox="0 0 40 40" version="1.1" xmlns="http://www.w3.org/2000/svg" xmlns:xlink="http://www.w3.org/1999/xlink">
    <!-- Generator: Sketch 52.3 (67297) - http://www.bohemiancoding.com/sketch -->
    <title>Rectangle 14</title>
    <desc>Created with Sketch.</desc>
    <g id="工具-视频" stroke="none" stroke-width="1" fill="none" fill-rule="evenodd">
        <g id="上一帧">
            <rect id="Rectangle-14" x="0" y="0" width="40" height="40"></rect>
            <g id="skip_previous-24px" transform="translate(7.000000, 8.000000)">
                <path d="M16.5,6 L16.5,6 C17.3284271,6 18,6.67157288 18,7.5 L18,16.5 C18,17.3284271 17.3284271,18 16.5,18 L16.5,18 C15.6715729,18 15,17.3284271 15,16.5 L15,7.5 C15,6.67157288 15.6715729,6 16.5,6 Z M5.59257578,12.8050558 L12.406801,17.8260639 C12.851421,18.1536786 13.4774411,18.0588271 13.8050558,17.6142071 C13.9316872,17.4423502 14,17.2344801 14,17.021008 L14,6.97899197 C14,6.42670722 13.5522847,5.97899197 13,5.97899197 C12.786528,5.97899197 12.5786579,6.04730473 12.406801,6.17393613 L5.59257578,11.1949442 C5.14795572,11.5225589 5.0531042,12.148579 5.38071898,12.593199 C5.44029808,12.6740564 5.51171843,12.7454767 5.59257578,12.8050558 Z" id="Shape" fill="#333333" fill-rule="nonzero"></path>
                <polygon id="Path" points="0 0 24 0 24 24 0 24"></polygon>
            </g>
        </g>
    </g>
</svg>