<?xml version="1.0" encoding="UTF-8"?>
<svg width="36px" height="36px" viewBox="0 0 36 36" version="1.1" xmlns="http://www.w3.org/2000/svg" xmlns:xlink="http://www.w3.org/1999/xlink">
    <!-- Generator: Sketch 52.3 (67297) - http://www.bohemiancoding.com/sketch -->
    <title>Rectangle</title>
    <desc>Created with Sketch.</desc>
    <g id="主页" stroke="none" stroke-width="1" fill="none" fill-rule="evenodd">
        <g id="Group-6">
            <g id="图片" transform="translate(6.000000, 6.000000)">
                <rect id="Rectangle" fill="#000000" opacity="0" x="0" y="0" width="24" height="24"></rect>
                <path d="M21.9280575,1.81294964 L2.07194245,1.81294964 C0.927640234,1.81294964 1.40136605e-16,2.74058987 0,3.88489209 L0,20.1151079 C1.40136605e-16,21.2594101 0.927640234,22.1870504 2.07194245,22.1870504 L21.9280575,22.1870504 C23.0723598,22.1870504 24,21.2594101 24,20.1151079 L24,3.88489209 C24,2.74058987 23.0723598,1.81294964 21.9280575,1.81294964 Z M2.07194245,3.19424461 L21.9280575,3.19424461 C22.3094916,3.19424461 22.618705,3.50345802 22.618705,3.88489209 L22.618705,13.294964 L18.8684892,9.2028777 C18.7376637,9.06001216 18.5528527,8.978657 18.3591367,8.978657 C18.1654207,8.978657 17.9806097,9.06001216 17.8497842,9.2028777 L10.7309352,16.9726619 L7.10503596,13.4900719 C6.83756422,13.232429 6.41423434,13.232429 6.1467626,13.4900719 L1.38129497,18.1018705 L1.38129497,3.88489209 C1.38129497,3.50345802 1.69050838,3.19424461 2.07194245,3.19424461 Z M21.9280575,20.8057554 L2.07194245,20.8057554 C1.69050838,20.8057554 1.38129497,20.496542 1.38129497,20.1151079 L1.38129497,20.028777 L1.4020144,20.0115108 L6.62158273,14.9456115 L10.2854676,18.4558273 C10.4200595,18.5829474 10.5993776,18.6518205 10.7844604,18.647482 C10.9703669,18.6412831 11.1459136,18.5603574 11.2713669,18.4230216 L18.3591367,10.691223 L22.618705,15.3341007 L22.618705,20.1151079 C22.618705,20.496542 22.3094916,20.8057554 21.9280575,20.8057554 Z" id="Shape" fill="#333333" fill-rule="nonzero"></path>
                <path d="M6.44546763,9.84172662 C7.78048689,9.84172662 8.86273383,8.75947968 8.86273383,7.42446042 C8.86273383,6.08944117 7.78048689,5.00719423 6.44546763,5.00719423 C5.11044838,5.00719423 4.02820144,6.08944117 4.02820144,7.42446042 C4.02820144,8.75947968 5.11044838,9.84172662 6.44546763,9.84172662 Z M6.44546763,6.38848922 C6.86447888,6.38848922 7.24223159,6.64089551 7.40258025,7.02801143 C7.56292891,7.41512734 7.4742956,7.86071704 7.1780099,8.15700273 C6.8817242,8.45328843 6.43613451,8.54192172 6.04901859,8.38157305 C5.66190268,8.22122438 5.4094964,7.84347167 5.40949641,7.42446042 C5.40949642,6.85230932 5.87331653,6.38848922 6.44546763,6.38848922 Z" id="Shape" fill="#333333" fill-rule="nonzero"></path>
            </g>
        </g>
    </g>
</svg>