<?xml version="1.0" encoding="UTF-8"?>
<svg width="36px" height="36px" viewBox="0 0 36 36" version="1.1" xmlns="http://www.w3.org/2000/svg" xmlns:xlink="http://www.w3.org/1999/xlink">
    <!-- Generator: Sketch 52.3 (67297) - http://www.bohemiancoding.com/sketch -->
    <title>Rectangle 32</title>
    <desc>Created with Sketch.</desc>
    <g id="工具-视频" stroke="none" stroke-width="1" fill="none" fill-rule="evenodd">
        <g id="Group-37-Copy-2" fill="#000000">
            <g id="翻转" transform="translate(8.000000, 9.000000)">
                <rect id="Rectangle" opacity="0" x="0" y="0" width="17.0261283" height="17"></rect>
                <path d="M10.0264978,13.5933889 L10.9723938,13.5933889 L10.9723938,16.3946111 C10.9723938,16.6554122 10.7606477,16.8668333 10.4994458,16.8668333 C10.2382438,16.8668333 10.0264978,16.6554122 10.0264978,16.3946111 L10.0264978,13.5933889 Z M10.0264978,8.8655 L10.9723938,8.8655 L10.9723938,12.5025556 L10.0264978,12.5025556 L10.0264978,8.86644445 L10.0264978,8.8655 Z M10.4994458,0.0160555537 C10.6248794,0.0160555537 10.7451756,0.0658073965 10.8338705,0.154366244 C10.9225655,0.242925092 10.9723938,0.363036664 10.9723938,0.488277785 L10.9723938,2.92588889 L10.0264978,2.92588889 L10.0264978,0.489222215 C10.0264978,0.363981094 10.0763261,0.243869523 10.165021,0.155310679 C10.253716,0.0667518342 10.3740122,0.0169999956 10.4994458,0.017 L10.4994458,0.0160555537 Z M10.0264978,4.01672221 L10.9723938,4.01672221 L10.9723938,7.65283334 L10.0264978,7.65283334 L10.0264978,4.01672221 Z M7.38744787,0.017 C7.74499657,0.017 7.98336236,0.258777785 7.98336236,0.622388893 L7.98336236,16.3776111 C7.98336236,16.6193889 7.74499657,16.983 7.38744787,16.983 L0.576996565,16.983 C0.100264974,16.983 -0.13904672,16.4985 0.100264974,16.1348889 L6.90882448,0.380611107 C7.02895328,0.137888893 7.26826497,0.017 7.38650197,0.017 L7.38744787,0.017 Z M6.78869571,3.40944445 L1.53235154,15.7712778 L6.78869571,15.7712778 L6.78869571,3.41038889 L6.78869571,3.40944445 Z M13.5546899,0.017 C13.7940016,0.017 14.0333133,0.137888893 14.1524962,0.380611107 L20.9620016,16.1348889 C21.0811845,16.4985 20.8418728,16.983 20.3641953,16.983 L13.5546899,16.983 C13.1971412,16.983 12.9578295,16.7412222 12.9578295,16.3776111 L12.9578295,0.622388893 C12.9578295,0.258777785 13.3163241,0.017 13.5546899,0.017 Z" id="Shape" fill-rule="nonzero"></path>
            </g>
        </g>
    </g>
</svg>