<?xml version="1.0" encoding="UTF-8"?>
<svg width="36px" height="36px" viewBox="0 0 36 36" version="1.1" xmlns="http://www.w3.org/2000/svg" xmlns:xlink="http://www.w3.org/1999/xlink">
    <!-- Generator: Sketch 52.3 (67297) - http://www.bohemiancoding.com/sketch -->
    <title>Rectangle</title>
    <desc>Created with Sketch.</desc>
    <g id="主页" stroke="none" stroke-width="1" fill="none" fill-rule="evenodd">
        <g id="Group-6">
            <g id="文字" transform="translate(6.000000, 6.000000)">
                <rect id="Rectangle" fill="#000000" opacity="0" x="0" y="0" width="24" height="24"></rect>
                <path d="M4.5,24 L0,24 L0,19.5 L4.5,19.5 L4.5,24 Z M1.5,22.5 L3,22.5 L3,21 L1.5,21 L1.5,22.5 Z M24,24 L19.5,24 L19.5,19.5 L24,19.5 L24,24 Z M21,22.5 L22.5,22.5 L22.5,21 L21,21 L21,22.5 Z M4.5,4.5 L0,4.5 L0,0 L4.5,0 L4.5,4.5 Z M1.5,3 L3,3 L3,1.5 L1.5,1.5 L1.5,3 Z M24,4.5 L19.5,4.5 L19.5,0 L24,0 L24,4.5 Z M21,3 L22.5,3 L22.5,1.5 L21,1.5 L21,3 Z" id="Shape" fill="#333333" fill-rule="nonzero"></path>
                <path d="M1.5,3.75 L3,3.75 L3,20.25 L1.5,20.25 L1.5,3.75 Z M3.75,1.5 L20.25,1.5 L20.25,3 L3.75,3 L3.75,1.5 Z M21,3.75 L22.5,3.75 L22.5,20.25 L21,20.25 L21,3.75 Z M3.75,21 L20.25,21 L20.25,22.5 L3.75,22.5 L3.75,21 Z M9.75,16.5 L14.25,16.5 L14.25,18 L9.75,18 L9.75,16.5 Z" id="Shape" fill="#333333" fill-rule="nonzero"></path>
                <polygon id="Path" fill="#333333" points="11.25 6.75 12.75 6.75 12.75 17.25 11.25 17.25"></polygon>
                <polygon id="Path" fill="#333333" points="18 9 16.5 9 16.5 7.5 7.5 7.5 7.5 9 6 9 6 6 18 6"></polygon>
            </g>
        </g>
    </g>
</svg>