<?xml version="1.0" encoding="UTF-8"?>
<svg width="40px" height="40px" viewBox="0 0 40 40" version="1.1" xmlns="http://www.w3.org/2000/svg" xmlns:xlink="http://www.w3.org/1999/xlink">
    <!-- Generator: Sketch 52.3 (67297) - http://www.bohemiancoding.com/sketch -->
    <title>Rectangle 14</title>
    <desc>Created with Sketch.</desc>
    <g id="工具-视频" stroke="none" stroke-width="1" fill="none" fill-rule="evenodd">
        <g id="暂停">
            <rect id="Rectangle-14" x="0" y="0" width="40" height="40"></rect>
            <g id="pause-24px" transform="translate(8.000000, 8.000000)">
                <path d="M7,19 L9,19 C9.55228475,19 10,18.5522847 10,18 L10,6 C10,5.44771525 9.55228475,5 9,5 L7,5 C6.44771525,5 6,5.44771525 6,6 L6,18 C6,18.5522847 6.44771525,19 7,19 Z M14,6 L14,18 C14,18.5522847 14.4477153,19 15,19 L17,19 C17.5522847,19 18,18.5522847 18,18 L18,6 C18,5.44771525 17.5522847,5 17,5 L15,5 C14.4477153,5 14,5.44771525 14,6 Z" id="Shape" fill="#333333" fill-rule="nonzero"></path>
                <polygon id="Path" points="0 0 24 0 24 24 0 24"></polygon>
            </g>
        </g>
    </g>
</svg>