<?xml version="1.0" encoding="UTF-8"?>
<svg width="36px" height="36px" viewBox="0 0 36 36" version="1.1" xmlns="http://www.w3.org/2000/svg" xmlns:xlink="http://www.w3.org/1999/xlink">
    <!-- Generator: Sketch 52.3 (67297) - http://www.bohemiancoding.com/sketch -->
    <title>Rectangle</title>
    <desc>Created with Sketch.</desc>
    <g id="主页" stroke="none" stroke-width="1" fill="none" fill-rule="evenodd">
        <g id="Group-6">
            <g id="滤镜" transform="translate(6.000000, 6.000000)">
                <rect id="Rectangle" fill="#000000" opacity="0" x="0" y="0" width="23.9765854" height="24"></rect>
                <path d="M11.8467074,13.7765611 L11.6339269,13.7765611 L11.676483,12.356639 L11.8410332,12.356639 C14.3953026,12.3592803 16.6102302,10.5894095 17.1735643,8.09560071 C17.7368985,5.60179189 16.4981515,3.05023536 14.1912289,1.95262125 C11.8843064,0.855007144 9.12547412,1.50454954 7.54922454,3.51642184 C5.97297495,5.52829415 6.00038366,8.36504945 7.61521215,10.3460293 L6.51584614,11.24484 C4.48071908,8.7498378 4.44472669,5.17621811 6.42918744,2.64065276 C8.41364819,0.105087404 11.8886174,-0.715307957 14.7958543,0.665390721 C17.7030913,2.0460894 19.2662265,5.25917039 18.5594076,8.40151064 C17.8525886,11.5438509 15.0645696,13.7762972 11.8467074,13.7765611 Z M6.88182863,23.8580078 C3.59357593,23.8586035 0.764582596,21.5299753 0.130007207,18.3003837 C-0.504568181,15.0707921 1.232695,11.843197 4.27624913,10.5972387 C7.31980326,9.35128038 10.8187025,10.4353158 12.6269026,13.1844536 L11.4424244,13.9668306 C10.1243675,11.9607442 7.65288351,11.0503608 5.35013713,11.7227065 C3.04739074,12.3950521 1.45247281,14.4927254 1.41861335,16.8935383 C1.3847539,19.2943512 2.91987967,21.4362548 5.20274755,22.1733992 C7.48561544,22.9105436 9.98178832,22.0703577 11.3558936,20.1023139 L12.5190938,20.9173492 C11.2307057,22.7581813 9.12726658,23.8554326 6.88182863,23.8580078 Z M17.0952935,24 C14.3928967,24.0001342 11.9406929,22.4166298 10.8267429,19.9520995 C9.71279303,17.4875692 10.1434249,14.5984977 11.927564,12.5667874 L12.9928851,13.5053559 C11.2950872,15.4398147 11.1760766,18.2979568 12.7071669,20.3671264 C14.2382571,22.4362959 17.0043061,23.1554552 19.3478419,22.0936696 C21.6913777,21.0318839 22.9769705,18.4770474 22.4342673,15.9600694 C21.8915642,13.4430913 19.6677145,11.6464288 17.0952935,11.646678 C16.9080466,11.646678 16.7207998,11.6566174 16.53639,11.6750764 L16.3945363,10.2551543 C16.6301813,10.2309802 16.866926,10.2191314 17.1038047,10.2196563 C20.9034704,10.2196563 23.9837081,13.302902 23.9837081,17.1062783 C23.9837081,20.9096547 20.9034704,23.9929004 17.1038047,23.9929004 L17.0952935,24 Z" id="Shape" fill="#333333" fill-rule="nonzero"></path>
            </g>
        </g>
    </g>
</svg>