<?xml version="1.0" encoding="UTF-8"?>
<svg width="36px" height="36px" viewBox="0 0 36 36" version="1.1" xmlns="http://www.w3.org/2000/svg" xmlns:xlink="http://www.w3.org/1999/xlink">
    <!-- Generator: Sketch 52.3 (67297) - http://www.bohemiancoding.com/sketch -->
    <title>Rectangle</title>
    <desc>Created with Sketch.</desc>
    <g id="编辑页面" stroke="none" stroke-width="1" fill="none" fill-rule="evenodd">
        <g id="Group-6">
            <g id="视频" transform="translate(6.000000, 6.000000)">
                <rect id="Rectangle" fill="#000000" opacity="0" x="0" y="0" width="24" height="24"></rect>
                <path d="M0.754650141,0 L0.754650141,24 L23.2453499,24 L23.2453499,0 L0.754650141,0 Z M17.9946856,1.50930026 L17.9946856,11.2453499 L6.00531443,11.2453499 L6.00531443,1.50930026 L17.9946856,1.50930026 Z M2.2639504,1.50930026 L4.49601417,1.50930026 L4.49601417,4.50664305 L2.2639504,4.50664305 L2.2639504,1.50930026 Z M2.2639504,5.99468557 L4.49601417,5.99468557 L4.49601417,8.99202834 L2.2639504,8.99202834 L2.2639504,5.99468557 Z M2.2639504,10.5013286 L4.49601417,10.5013286 L4.49601417,13.4986714 L2.2639504,13.4986714 L2.2639504,10.5013286 Z M2.2639504,15.0079717 L4.49601417,15.0079717 L4.49601417,18.0053144 L2.2639504,18.0053144 L2.2639504,15.0079717 Z M2.2639504,22.4906997 L2.2639504,19.4933569 L4.49601417,19.4933569 L4.49601417,22.4906997 L2.2639504,22.4906997 Z M6.00531443,22.4906997 L6.00531443,12.7546501 L17.9946856,12.7546501 L17.9946856,22.4906997 L6.00531443,22.4906997 Z M21.7573073,22.4906997 L19.5039858,22.4906997 L19.5039858,19.4933569 L21.7573073,19.4933569 L21.7573073,22.4906997 Z M21.7573073,18.0053144 L19.5039858,18.0053144 L19.5039858,15.0079717 L21.7573073,15.0079717 L21.7573073,18.0053144 Z M21.7573073,13.4986714 L19.5039858,13.4986714 L19.5039858,10.5013286 L21.7573073,10.5013286 L21.7573073,13.4986714 Z M21.7573073,8.99202834 L19.5039858,8.99202834 L19.5039858,5.99468557 L21.7573073,5.99468557 L21.7573073,8.99202834 Z M21.7573073,4.50664305 L19.5039858,4.50664305 L19.5039858,1.50930026 L21.7573073,1.50930026 L21.7573073,4.50664305 Z" id="Shape" fill="#333333" fill-rule="nonzero"></path>
            </g>
        </g>
    </g>
</svg>